Crispy-parametric-WideBlackMaxGrade-MinShadow.ufo
<glyph name="comma" format="2">
  <advance width="1917"/>
  <unicode hex="002C"/>
  <outline>
    <contour>
      <point x="1474" y="-47" type="line"/>
      <point x="1764" y="1" type="line"/>
      <point x="1764" y="542" type="line"/>
      <point x="967" y="542" type="line"/>
      <point x="818" y="362" type="line"/>
      <point x="818" y="0" type="line"/>
      <point x="1319" y="0" type="line"/>
      <point x="1319" y="-47" type="line"/>
    </contour>
  </outline>
</glyph>
<glyph name="three" format="2">
  <advance width="5251"/>
  <unicode hex="0033"/>
  <outline>
    <contour>
      <point x="124" y="0" type="line" identifier="O9abUc1nmN"/>
      <point x="5098" y="0" type="line" identifier="kMJYMTfXCq"/>
      <point x="5098" y="895" type="line" identifier="su2XmdS8e8"/>
      <point x="4591" y="899" type="line" identifier="JQaOzDQqlF"/>
      <point x="4502" y="783" type="line"/>
      <point x="4981" y="1078" type="line" identifier="S91TzLL02W"/>
      <point x="4981" y="1600" type="line" identifier="xg8x2Ki40p"/>
      <point x="148" y="1600" type="line" identifier="pE1XSRiy68"/>
      <point x="148" y="889" type="line" identifier="5lNstGRcSF"/>
      <point x="1095" y="889" type="line" identifier="AcE5xKDZfE"/>
      <point x="1095" y="1104" type="line" identifier="7ogBYufWpl"/>
      <point x="3821" y="1104" type="line" identifier="RHLvSX2Jv6"/>
      <point x="3821" y="1123" type="line" identifier="YUjTrmoWd9"/>
      <point x="3713" y="1047" type="line"/>
      <point x="3803" y="1047" type="line" identifier="iic1IBkDqp"/>
      <point x="1614" y="1047" type="line" identifier="lRLJEhXMlO"/>
      <point x="1614" y="551" type="line" identifier="8aKgEELrVU"/>
      <point x="4152" y="551" type="line" identifier="Dm8zjmbhNr"/>
      <point x="4152" y="496" type="line" identifier="xv9CFHiFgB"/>
      <point x="1071" y="496" type="line" identifier="YajKQV3MHP"/>
      <point x="1071" y="708" type="line" identifier="36SchVkwze"/>
      <point x="124" y="708" type="line" identifier="tVui9PiOjA"/>
    </contour>
  </outline>
</glyph>
<glyph name="A.shadow" format="2">
  <advance width="5273"/>
  <outline>
    <contour>
      <point x="4303" y="272" type="line" smooth="yes" identifier="QVexAlbAcl"/>
      <point x="1098" y="272" type="line" smooth="yes" identifier="viYRWe5UN7"/>
      <point x="1098" y="122" type="line"/>
      <point x="4153" y="122" type="line"/>
      <point x="4153" y="-150" type="line"/>
      <point x="5099" y="-150" type="line"/>
      <point x="5249" y="0" type="line" smooth="yes" identifier="kpn4Kw9J0C"/>
      <point x="4303" y="0" type="line" smooth="yes" identifier="ZgsCdxNJRW"/>
    </contour>
    <contour>
      <point x="4153" y="808" type="line"/>
      <point x="4303" y="808" type="line" smooth="yes" identifier="eTe9B4y76W"/>
      <point x="4303" y="1064" type="line" smooth="yes" identifier="tUsW8L7b0y"/>
      <point x="1234" y="1064" type="line" smooth="yes" identifier="FsYtJ2vFnp"/>
      <point x="1098" y="927" type="line" smooth="yes" identifier="VufvPdJ075"/>
      <point x="1098" y="914" type="line"/>
      <point x="4153" y="914" type="line"/>
    </contour>
    <contour>
      <point x="153" y="0" type="line" smooth="yes" identifier="jFq8ta4UUc"/>
      <point x="153" y="1092" type="line" smooth="yes" identifier="dqVr87m3uJ"/>
      <point x="644" y="1600" type="line" smooth="yes" identifier="iDT0uyhKrn"/>
      <point x="494" y="1450" type="line"/>
      <point x="3" y="942" type="line"/>
      <point x="3" y="-150" type="line"/>
      <point x="948" y="-150" type="line"/>
      <point x="1098" y="0" type="line" smooth="yes" identifier="dQz4RxYhG4"/>
    </contour>
    <contour>
      <point x="1099.0" y="-1.0000000000000002" type="line"/>
      <point x="152.0" y="-0.9999999999999998" type="line"/>
      <point x="152.0" y="1092.4042809495133" type="line"/>
      <point x="643.5757835704507" y="1601.0" type="line"/>
      <point x="5250.0" y="1601.0" type="line"/>
      <point x="5250.0" y="-1.0000000000000002" type="line"/>
      <point x="4302.0" y="-0.9999999999999998" type="line"/>
      <point x="4302.0" y="272.0" type="line"/>
      <point x="4303.0" y="271.0" type="line"/>
      <point x="1098.0" y="271.0" type="line"/>
      <point x="1099.0" y="272.0" type="line"/>
    </contour>
    <contour>
      <point x="1099.0" y="808.0" type="line"/>
      <point x="1098.0" y="809.0" type="line"/>
      <point x="4303.0" y="809.0" type="line"/>
      <point x="4302.0" y="808.0" type="line"/>
      <point x="4302.0" y="1064.0" type="line"/>
      <point x="4303.0" y="1063.0" type="line"/>
      <point x="1234.0" y="1063.0" type="line"/>
      <point x="1234.7096921547509" y="1063.2954880799552" type="line"/>
      <point x="1098.7096921547509" y="926.2954880799554" type="line"/>
      <point x="1099.0" y="927.0" type="line"/>
    </contour>
    <contour>
      <point x="153.0" y="1.0" type="line"/>
      <point x="1098.0" y="1.0" type="line"/>
      <point x="1097.0" y="1.2246467991473532e-16" type="line"/>
      <point x="1097.0" y="273.0" type="line"/>
      <point x="4304.0" y="273.0" type="line"/>
      <point x="4304.0" y="-2.4492935982947064e-16" type="line"/>
      <point x="4303.0" y="1.0" type="line"/>
      <point x="5249.0" y="1.0" type="line"/>
      <point x="5248.0" y="1.2246467991473532e-16" type="line"/>
      <point x="5248.0" y="1600.0" type="line"/>
      <point x="5249.0" y="1599.0" type="line"/>
      <point x="644.0" y="1599.0" type="line"/>
      <point x="644.7190355281035" y="1599.3050266844511" type="line"/>
      <point x="153.7190355281035" y="1091.3050266844511" type="line"/>
      <point x="154.0" y="1092.0" type="line"/>
      <point x="154.0" y="-2.4492935982947064e-16" type="line"/>
    </contour>
    <contour>
      <point x="1097.0" y="927.4120694582863" type="line"/>
      <point x="1233.5836390779054" y="1065.0" type="line"/>
      <point x="4304.0" y="1065.0" type="line"/>
      <point x="4304.0" y="807.0" type="line"/>
      <point x="1097.0" y="807.0" type="line"/>
    </contour>
  </outline>
</glyph>
<glyph name="B.narrow.shadow" format="2">
  <advance width="5330"/>
  <outline>
    <contour>
      <point x="5246" y="550" type="line" identifier="543PerILpr"/>
      <point x="5118" y="587" type="line"/>
      <point x="5146" y="597" type="line"/>
      <point x="5196" y="647" type="line" identifier="eGKH52Jgnk"/>
      <point x="5068" y="601" type="line" identifier="870ZhtaozS"/>
    </contour>
    <contour>
      <point x="1137" y="879" type="line" identifier="By7dfMihfe"/>
      <point x="4200" y="978" type="line"/>
      <point x="4200" y="978" type="line"/>
      <point x="4250" y="980" type="line" identifier="9lW01gQyU2"/>
      <point x="4250" y="1104" type="line" identifier="Qby8aMtF2X"/>
      <point x="1137" y="1104" type="line" identifier="1p5hKrurVy"/>
      <point x="1137" y="1054" type="line"/>
      <point x="4200" y="1054" type="line"/>
      <point x="4200" y="978" type="line"/>
    </contour>
    <contour>
      <point x="4300" y="496" type="line" identifier="xhlDJ3CjD5"/>
      <point x="3954" y="496" type="line"/>
      <point x="3853" y="544" type="line" identifier="VyYlzRh5nq"/>
      <point x="2699" y="496" type="line"/>
      <point x="3954" y="496" type="line"/>
      <point x="4300" y="332" type="line" identifier="lsRGatjQja"/>
    </contour>
    <contour>
      <point x="1137" y="496" type="line" identifier="jaMSiLrCua"/>
      <point x="1137" y="431" type="line" identifier="XSrxNd2axx"/>
      <point x="2699" y="496" type="line"/>
    </contour>
    <contour>
      <point x="192" y="0" type="line" identifier="hvY9r8RmLr"/>
      <point x="192" y="1600" type="line" identifier="JEev70GAj6"/>
      <point x="142" y="1550" type="line"/>
      <point x="142" y="-50" type="line"/>
      <point x="5196" y="-50" type="line"/>
      <point x="5246" y="0" type="line" identifier="9QFpw7nfq7"/>
    </contour>
  </outline>
</glyph>
<glyph name="B.shadow" format="2">
  <advance width="5330"/>
  <outline>
    <contour>
      <point x="5146" y="975" type="line"/>
      <point x="5196" y="1025" type="line" identifier="eGKH52Jgnk"/>
      <point x="4888" y="802" type="line" identifier="870ZhtaozS"/>
      <point x="4888" y="800" type="line" identifier="zhomauHW30"/>
      <point x="4897" y="794" type="line"/>
      <point x="4897" y="794" type="line"/>
      <point x="5246" y="568" type="line" identifier="543PerILpr"/>
      <point x="4897" y="794" type="line"/>
    </contour>
    <contour>
      <point x="4250" y="1104" type="line" identifier="Qby8aMtF2X"/>
      <point x="4250" y="1123" type="line" identifier="9lW01gQyU2"/>
      <point x="4220" y="1104" type="line"/>
      <point x="1137" y="1104" type="line" identifier="1p5hKrurVy"/>
      <point x="1136" y="1054" type="line"/>
      <point x="4142" y="1054" type="line"/>
      <point x="4091" y="1021" type="line" identifier="xpxyvIzPoc"/>
      <point x="4220" y="1104" type="line"/>
    </contour>
    <contour>
      <point x="1136" y="1021" type="line" identifier="By7dfMihfe"/>
      <point x="1136" y="1054" type="line"/>
      <point x="1136" y="1054" type="line"/>
    </contour>
    <contour>
      <point x="3951" y="496" type="line"/>
      <point x="4082" y="496" type="line"/>
      <point x="4301" y="361" type="line" identifier="lsRGatjQja"/>
      <point x="4301" y="496" type="line" identifier="xhlDJ3CjD5"/>
      <point x="4082" y="496" type="line"/>
      <point x="3948" y="579" type="line" identifier="VyYlzRh5nq"/>
      <point x="1137" y="579" type="line" identifier="XSrxNd2axx"/>
      <point x="1137" y="529" type="line"/>
      <point x="3898" y="529" type="line"/>
    </contour>
    <contour>
      <point x="192" y="0" type="line" identifier="hvY9r8RmLr"/>
      <point x="192" y="1600" type="line" identifier="JEev70GAj6"/>
      <point x="142" y="1550" type="line"/>
      <point x="142" y="-50" type="line"/>
      <point x="5196" y="-50" type="line"/>
      <point x="5246" y="0" type="line" identifier="9QFpw7nfq7"/>
    </contour>
  </outline>
</glyph>
<glyph name="C.shadow" format="2">
  <advance width="5157"/>
  <outline>
    <contour>
      <point x="4258" y="1064" type="line" identifier="5BjRbcud80"/>
      <point x="1295" y="1064" type="line" identifier="dbOUe6OhxL"/>
      <point x="1099" y="860" type="line" identifier="sUWsr03vF4"/>
      <point x="1151" y="914" type="line"/>
      <point x="4108" y="914" type="line"/>
      <point x="4108" y="774" type="line"/>
      <point x="5053" y="774" type="line"/>
      <point x="5203" y="924" type="line" identifier="wLqQQx7QVN"/>
      <point x="4258" y="924" type="line" identifier="fNVDqwQo2o"/>
    </contour>
    <contour>
      <point x="153" y="0" type="line" identifier="7lPhzTnk2Z"/>
      <point x="153" y="1099" type="line" identifier="V1EWIdPahq"/>
      <point x="644" y="1600" type="line" identifier="lfZev3ICaC"/>
      <point x="494" y="1450" type="line"/>
      <point x="3" y="949" type="line"/>
      <point x="3" y="-150" type="line"/>
      <point x="5051" y="-150" type="line"/>
      <point x="5201" y="0" type="line" identifier="qJVLZGnkwh"/>
    </contour>
    <contour>
      <point x="4106" y="536" type="line"/>
      <point x="4256" y="536" type="line" identifier="Y750RHTvDj"/>
      <point x="4256" y="770" type="line" identifier="QX1V08aTu0"/>
      <point x="4106" y="620" type="line"/>
    </contour>
    <contour>
      <point x="5202.0" y="-1.0000000000000002" type="line"/>
      <point x="152.0" y="-0.9999999999999998" type="line"/>
      <point x="152.0" y="1099.4083209093574" type="line"/>
      <point x="643.5798691287536" y="1601.0" type="line"/>
      <point x="5204.0" y="1601.0" type="line"/>
      <point x="5204.0" y="923.0" type="line"/>
      <point x="4257.0" y="923.0" type="line"/>
      <point x="4257.0" y="1064.0" type="line"/>
      <point x="4258.0" y="1063.0" type="line"/>
      <point x="1295.0" y="1063.0" type="line"/>
      <point x="1295.7211047102874" y="1063.3071739058023" type="line"/>
      <point x="1099.7211047102874" y="859.3071739058023" type="line"/>
      <point x="1100.0" y="860.0" type="line"/>
      <point x="1100.0" y="536.0" type="line"/>
      <point x="1099.0" y="537.0" type="line"/>
      <point x="4256.0" y="537.0" type="line"/>
      <point x="4255.0" y="536.0" type="line"/>
      <point x="4255.0" y="771.0" type="line"/>
      <point x="5202.0" y="771.0" type="line"/>
    </contour>
    <contour>
      <point x="153.0" y="1.0" type="line"/>
      <point x="5201.0" y="1.0" type="line"/>
      <point x="5200.0" y="1.2246467991473532e-16" type="line"/>
      <point x="5200.0" y="770.0" type="line"/>
      <point x="5201.0" y="769.0" type="line"/>
      <point x="4256.0" y="769.0" type="line"/>
      <point x="4257.0" y="770.0" type="line"/>
      <point x="4257.0" y="535.0" type="line"/>
      <point x="1098.0" y="535.0" type="line"/>
      <point x="1098.0" y="860.4025473232723" type="line"/>
      <point x="1294.5740231599932" y="1065.0" type="line"/>
      <point x="4259.0" y="1065.0" type="line"/>
      <point x="4259.0" y="924.0" type="line"/>
      <point x="4258.0" y="925.0" type="line"/>
      <point x="5203.0" y="925.0" type="line"/>
      <point x="5202.0" y="924.0" type="line"/>
      <point x="5202.0" y="1600.0" type="line"/>
      <point x="5203.0" y="1599.0" type="line"/>
      <point x="644.0" y="1599.0" type="line"/>
      <point x="644.7141985864423" y="1599.3000568743648" type="line"/>
      <point x="153.7141985864423" y="1098.3000568743648" type="line"/>
      <point x="154.0" y="1099.0" type="line"/>
      <point x="154.0" y="-2.4492935982947064e-16" type="line"/>
    </contour>
  </outline>
</glyph>
<glyph name="C.wide.shadow" format="2">
  <advance width="5043"/>
  <outline>
    <contour>
      <point x="230" y="0" type="line" identifier="7lPhzTnk2Z"/>
      <point x="230" y="1099" type="line" identifier="V1EWIdPahq"/>
      <point x="720" y="1600" type="line" identifier="lfZev3ICaC"/>
      <point x="670" y="1550" type="line"/>
      <point x="180" y="1049" type="line"/>
      <point x="180" y="-50" type="line"/>
      <point x="4939" y="-50" type="line"/>
      <point x="4989" y="0" type="line" identifier="qJVLZGnkwh"/>
    </contour>
    <contour>
      <point x="1176" y="757" type="line" identifier="sUWsr03vF4"/>
      <point x="1175" y="608" type="line" identifier="L2LsGnXiZ2"/>
      <point x="1176" y="756" type="line"/>
      <point x="1364" y="942" type="line"/>
      <point x="4938" y="942" type="line"/>
      <point x="4988" y="992" type="line" identifier="5BjRbcud80"/>
      <point x="1414" y="992" type="line" identifier="dbOUe6OhxL"/>
    </contour>
  </outline>
</glyph>
<glyph name="D.shadow" format="2">
  <advance width="5234"/>
  <outline>
    <contour>
      <point x="192" y="1600" type="line" identifier="gh4oopoKIn"/>
      <point x="42" y="1450" type="line"/>
      <point x="42" y="-150" type="line"/>
      <point x="4490" y="-150" type="line"/>
      <point x="5100" y="396" type="line"/>
      <point x="5250" y="546" type="line" identifier="ydeACnPZN4"/>
      <point x="4640" y="0" type="line" identifier="IF8msvcgce"/>
      <point x="192" y="0" type="line" identifier="hTYdJwlqIh"/>
    </contour>
    <contour>
      <point x="4154" y="623" type="line"/>
      <point x="4051" y="535" type="line" identifier="DiLdvAK6bW"/>
      <point x="4304" y="750" type="line" identifier="5OFemp6E2Y"/>
      <point x="4304" y="1001" type="line" identifier="4w8cXO1HlF"/>
      <point x="1138" y="1001" type="line" identifier="OGdfzPVlic"/>
      <point x="1138" y="851" type="line"/>
      <point x="4154" y="851" type="line"/>
    </contour>
    <contour>
      <point x="191.0" y="-0.9999999999999998" type="line"/>
      <point x="191.0" y="1601.0" type="line"/>
      <point x="5251.0" y="1601.0" type="line"/>
      <point x="5251.0" y="545.5530045745004" type="line"/>
      <point x="4640.382174376474" y="-1.0" type="line"/>
    </contour>
    <contour>
      <point x="1139.0" y="535.0" type="line"/>
      <point x="1138.0" y="536.0" type="line"/>
      <point x="4051.0" y="536.0" type="line"/>
      <point x="4050.3524390126604" y="535.7620136269621" type="line"/>
      <point x="4303.35243901266" y="750.7620136269621" type="line"/>
      <point x="4303.0" y="750.0" type="line"/>
      <point x="4303.0" y="1001.0" type="line"/>
      <point x="4304.0" y="1000.0" type="line"/>
      <point x="1138.0" y="1000.0" type="line"/>
      <point x="1139.0" y="1001.0" type="line"/>
    </contour>
    <contour>
      <point x="193.0" y="1600.0" type="line"/>
      <point x="193.0" y="-2.4492935982947064e-16" type="line"/>
      <point x="192.0" y="1.0" type="line"/>
      <point x="4640.0" y="1.0" type="line"/>
      <point x="4639.333062331521" y="0.7451135124024755" type="line"/>
      <point x="5249.333062331521" y="546.7451135124024" type="line"/>
      <point x="5249.0" y="546.0" type="line"/>
      <point x="5249.0" y="1600.0" type="line"/>
      <point x="5250.0" y="1599.0" type="line"/>
      <point x="192.0" y="1599.0" type="line"/>
    </contour>
    <contour>
      <point x="1137.0" y="1002.0" type="line"/>
      <point x="4305.0" y="1002.0" type="line"/>
      <point x="4305.0" y="749.5374898818204" type="line"/>
      <point x="4051.367511906509" y="534.0" type="line"/>
      <point x="1137.0" y="534.0" type="line"/>
    </contour>
  </outline>
</glyph>
<glyph name="E.shadow" format="2">
  <advance width="4793"/>
  <outline>
    <contour>
      <point x="3821" y="1104" type="line" identifier="eqNb2VTwYs"/>
      <point x="1137" y="1104" type="line" identifier="gQ21I4SHQg"/>
      <point x="1137" y="1048" type="line" identifier="m39IWn9ntA"/>
      <point x="3198" y="1048" type="line" identifier="8WuC5p8Ax5"/>
      <point x="3198" y="954" type="line"/>
      <point x="3671" y="954" type="line"/>
      <point x="3671" y="749" type="line"/>
      <point x="4688" y="749" type="line"/>
      <point x="4838" y="899" type="line" identifier="e79n7CoPy1"/>
      <point x="3821" y="899" type="line" identifier="mLmcFoJA4m"/>
    </contour>
    <contour>
      <point x="192" y="0" type="line" identifier="fZynkQ4XHB"/>
      <point x="192" y="1600" type="line" identifier="HmJIcnLWfC"/>
      <point x="42" y="1450" type="line"/>
      <point x="42" y="-150" type="line"/>
      <point x="4689" y="-150" type="line"/>
      <point x="4839" y="0" type="line" identifier="FAQNpgUPxV"/>
    </contour>
    <contour>
      <point x="3672" y="496" type="line"/>
      <point x="3822" y="496" type="line" identifier="5cgTYOhATF"/>
      <point x="3822" y="678" type="line" identifier="gxCIuXb4el"/>
      <point x="3672" y="528" type="line"/>
    </contour>
    <contour>
      <point x="1137" y="496" type="line" identifier="bWs42DaCgU"/>
      <point x="3142" y="496" type="line"/>
      <point x="3198" y="552" type="line" identifier="PpbsFdHAnS"/>
      <point x="1137" y="552" type="line" identifier="VtD2aADJmn"/>
    </contour>
    <contour>
      <point x="4840.0" y="-1.0000000000000002" type="line"/>
      <point x="191.0" y="-0.9999999999999998" type="line"/>
      <point x="191.0" y="1601.0" type="line"/>
      <point x="4839.0" y="1601.0" type="line"/>
      <point x="4839.0" y="898.0" type="line"/>
      <point x="3820.0" y="898.0" type="line"/>
      <point x="3820.0" y="1104.0" type="line"/>
      <point x="3821.0" y="1103.0" type="line"/>
      <point x="1137.0" y="1103.0" type="line"/>
      <point x="1138.0" y="1104.0" type="line"/>
      <point x="1138.0" y="1048.0" type="line"/>
      <point x="1137.0" y="1049.0" type="line"/>
      <point x="3199.0" y="1049.0" type="line"/>
      <point x="3199.0" y="551.0" type="line"/>
      <point x="1137.0" y="551.0" type="line"/>
      <point x="1138.0" y="552.0" type="line"/>
      <point x="1138.0" y="496.0" type="line"/>
      <point x="1137.0" y="497.0" type="line"/>
      <point x="3822.0" y="497.0" type="line"/>
      <point x="3821.0" y="496.0" type="line"/>
      <point x="3821.0" y="679.0" type="line"/>
      <point x="4840.0" y="679.0" type="line"/>
    </contour>
    <contour>
      <point x="192.0" y="1.0" type="line"/>
      <point x="4839.0" y="1.0" type="line"/>
      <point x="4838.0" y="1.2246467991473532e-16" type="line"/>
      <point x="4838.0" y="678.0" type="line"/>
      <point x="4839.0" y="677.0" type="line"/>
      <point x="3822.0" y="677.0" type="line"/>
      <point x="3823.0" y="678.0" type="line"/>
      <point x="3823.0" y="495.0" type="line"/>
      <point x="1136.0" y="495.0" type="line"/>
      <point x="1136.0" y="553.0" type="line"/>
      <point x="3198.0" y="553.0" type="line"/>
      <point x="3197.0" y="552.0" type="line"/>
      <point x="3197.0" y="1048.0" type="line"/>
      <point x="3198.0" y="1047.0" type="line"/>
      <point x="1136.0" y="1047.0" type="line"/>
      <point x="1136.0" y="1105.0" type="line"/>
      <point x="3822.0" y="1105.0" type="line"/>
      <point x="3822.0" y="899.0" type="line"/>
      <point x="3821.0" y="900.0" type="line"/>
      <point x="4838.0" y="900.0" type="line"/>
      <point x="4837.0" y="899.0" type="line"/>
      <point x="4837.0" y="1600.0" type="line"/>
      <point x="4838.0" y="1599.0" type="line"/>
      <point x="192.0" y="1599.0" type="line"/>
      <point x="193.0" y="1600.0" type="line"/>
      <point x="193.0" y="-2.4492935982947064e-16" type="line"/>
    </contour>
  </outline>
</glyph>
<glyph name="E.wide.shadow" format="2">
  <advance width="4724"/>
  <outline>
    <contour>
      <point x="1137" y="1020" type="line" identifier="m39IWn9ntA"/>
      <point x="4576" y="1020" type="line" identifier="8WuC5p8Ax5"/>
      <point x="4576" y="955" type="line"/>
      <point x="4619" y="955" type="line"/>
      <point x="4769" y="1105" type="line" identifier="eqNb2VTwYs"/>
      <point x="1137" y="1105" type="line" identifier="gQ21I4SHQg"/>
    </contour>
    <contour>
      <point x="192" y="0" type="line" identifier="fZynkQ4XHB"/>
      <point x="192" y="1600" type="line" identifier="HmJIcnLWfC"/>
      <point x="42" y="1450" type="line"/>
      <point x="42" y="-150" type="line"/>
      <point x="4620" y="-150" type="line"/>
      <point x="4770" y="0" type="line" identifier="FAQNpgUPxV"/>
    </contour>
    <contour>
      <point x="1137" y="495" type="line" identifier="bWs42DaCgU"/>
      <point x="4491" y="495" type="line"/>
      <point x="4576" y="580" type="line" identifier="PpbsFdHAnS"/>
      <point x="1137" y="580" type="line" identifier="VtD2aADJmn"/>
    </contour>
    <contour>
      <point x="4771.0" y="-1.0000000000000002" type="line"/>
      <point x="191.0" y="-0.9999999999999998" type="line"/>
      <point x="191.0" y="1601.0" type="line"/>
      <point x="4770.0" y="1601.0" type="line"/>
      <point x="4770.0" y="1104.0" type="line"/>
      <point x="1137.0" y="1104.0" type="line"/>
      <point x="1138.0" y="1105.0" type="line"/>
      <point x="1138.0" y="1020.0" type="line"/>
      <point x="1137.0" y="1021.0" type="line"/>
      <point x="4577.0" y="1021.0" type="line"/>
      <point x="4577.0" y="579.0" type="line"/>
      <point x="1137.0" y="579.0" type="line"/>
      <point x="1138.0" y="580.0" type="line"/>
      <point x="1138.0" y="495.0" type="line"/>
      <point x="1137.0" y="496.0" type="line"/>
      <point x="4771.0" y="496.0" type="line"/>
    </contour>
    <contour>
      <point x="192.0" y="1.0" type="line"/>
      <point x="4770.0" y="1.0" type="line"/>
      <point x="4769.0" y="1.2246467991473532e-16" type="line"/>
      <point x="4769.0" y="495.0" type="line"/>
      <point x="4770.0" y="494.0" type="line"/>
      <point x="1136.0" y="494.0" type="line"/>
      <point x="1136.0" y="581.0" type="line"/>
      <point x="4576.0" y="581.0" type="line"/>
      <point x="4575.0" y="580.0" type="line"/>
      <point x="4575.0" y="1020.0" type="line"/>
      <point x="4576.0" y="1019.0" type="line"/>
      <point x="1136.0" y="1019.0" type="line"/>
      <point x="1136.0" y="1106.0" type="line"/>
      <point x="4769.0" y="1106.0" type="line"/>
      <point x="4768.0" y="1105.0" type="line"/>
      <point x="4768.0" y="1600.0" type="line"/>
      <point x="4769.0" y="1599.0" type="line"/>
      <point x="192.0" y="1599.0" type="line"/>
      <point x="193.0" y="1600.0" type="line"/>
      <point x="193.0" y="-2.4492935982947064e-16" type="line"/>
    </contour>
  </outline>
</glyph>
<glyph name="F.shadow" format="2">
  <advance width="4729"/>
  <outline>
    <contour>
      <point x="3829" y="1064" type="line" identifier="4E754ovOIe"/>
      <point x="1138" y="1064" type="line" identifier="ZvzwyrcwpS"/>
      <point x="1138" y="914" type="line"/>
      <point x="3679" y="914" type="line"/>
      <point x="3679" y="647" type="line"/>
      <point x="4625" y="647" type="line"/>
      <point x="4775" y="797" type="line" identifier="0tk7G4orz6"/>
      <point x="3829" y="797" type="line" identifier="vZkeT9KrKR"/>
    </contour>
    <contour>
      <point x="192" y="0" type="line" identifier="oAgH2tA6DJ"/>
      <point x="192" y="1600" type="line" identifier="TBAYuCfUFX"/>
      <point x="42" y="1450" type="line"/>
      <point x="42" y="-150" type="line"/>
      <point x="988" y="-150" type="line"/>
      <point x="1138" y="0" type="line" identifier="zCZyMcW5ho"/>
    </contour>
    <contour>
      <point x="3059" y="347" type="line" identifier="NmB7yyQuio"/>
      <point x="1138" y="347" type="line" identifier="yHYqkMd7LI"/>
      <point x="1138" y="197" type="line"/>
      <point x="2909" y="197" type="line"/>
    </contour>
    <contour>
      <point x="1139.0" y="-1.0000000000000002" type="line"/>
      <point x="191.0" y="-0.9999999999999998" type="line"/>
      <point x="191.0" y="1601.0" type="line"/>
      <point x="4776.0" y="1601.0" type="line"/>
      <point x="4776.0" y="796.0" type="line"/>
      <point x="3828.0" y="796.0" type="line"/>
      <point x="3828.0" y="1064.0" type="line"/>
      <point x="3829.0" y="1063.0" type="line"/>
      <point x="1138.0" y="1063.0" type="line"/>
      <point x="1139.0" y="1064.0" type="line"/>
      <point x="1139.0" y="883.0" type="line"/>
      <point x="1138.0" y="884.0" type="line"/>
      <point x="3060.0" y="884.0" type="line"/>
      <point x="3060.0" y="346.0" type="line"/>
      <point x="1138.0" y="346.0" type="line"/>
      <point x="1139.0" y="347.0" type="line"/>
    </contour>
    <contour>
      <point x="192.0" y="1.0" type="line"/>
      <point x="1138.0" y="1.0" type="line"/>
      <point x="1137.0" y="1.2246467991473532e-16" type="line"/>
      <point x="1137.0" y="348.0" type="line"/>
      <point x="3059.0" y="348.0" type="line"/>
      <point x="3058.0" y="347.0" type="line"/>
      <point x="3058.0" y="883.0" type="line"/>
      <point x="3059.0" y="882.0" type="line"/>
      <point x="1137.0" y="882.0" type="line"/>
      <point x="1137.0" y="1065.0" type="line"/>
      <point x="3830.0" y="1065.0" type="line"/>
      <point x="3830.0" y="797.0" type="line"/>
      <point x="3829.0" y="798.0" type="line"/>
      <point x="4775.0" y="798.0" type="line"/>
      <point x="4774.0" y="797.0" type="line"/>
      <point x="4774.0" y="1600.0" type="line"/>
      <point x="4775.0" y="1599.0" type="line"/>
      <point x="192.0" y="1599.0" type="line"/>
      <point x="193.0" y="1600.0" type="line"/>
      <point x="193.0" y="-2.4492935982947064e-16" type="line"/>
    </contour>
  </outline>
</glyph>
<glyph name="F.wide.shadow" format="2">
  <advance width="4542"/>
  <outline>
    <contour>
      <point x="1138" y="914" type="line"/>
      <point x="4438" y="914" type="line"/>
      <point x="4588" y="1064" type="line" identifier="4E754ovOIe"/>
      <point x="1138" y="1064" type="line" identifier="ZvzwyrcwpS"/>
    </contour>
    <contour>
      <point x="192" y="0" type="line" identifier="oAgH2tA6DJ"/>
      <point x="192" y="1600" type="line" identifier="TBAYuCfUFX"/>
      <point x="42" y="1450" type="line"/>
      <point x="42" y="-150" type="line"/>
      <point x="988" y="-150" type="line"/>
      <point x="1138" y="0" type="line" identifier="zCZyMcW5ho"/>
    </contour>
    <contour>
      <point x="4174" y="338" type="line" identifier="NmB7yyQuio"/>
      <point x="1138" y="338" type="line" identifier="yHYqkMd7LI"/>
      <point x="1138" y="188" type="line"/>
      <point x="4024" y="188" type="line"/>
    </contour>
    <contour>
      <point x="1139.0" y="-1.0000000000000002" type="line"/>
      <point x="191.0" y="-0.9999999999999998" type="line"/>
      <point x="191.0" y="1601.0" type="line"/>
      <point x="4589.0" y="1601.0" type="line"/>
      <point x="4589.0" y="1063.0" type="line"/>
      <point x="1138.0" y="1063.0" type="line"/>
      <point x="1139.0" y="1064.0" type="line"/>
      <point x="1139.0" y="874.0" type="line"/>
      <point x="1138.0" y="875.0" type="line"/>
      <point x="4175.0" y="875.0" type="line"/>
      <point x="4175.0" y="337.0" type="line"/>
      <point x="1138.0" y="337.0" type="line"/>
      <point x="1139.0" y="338.0" type="line"/>
    </contour>
    <contour>
      <point x="192.0" y="1.0" type="line"/>
      <point x="1138.0" y="1.0" type="line"/>
      <point x="1137.0" y="1.2246467991473532e-16" type="line"/>
      <point x="1137.0" y="339.0" type="line"/>
      <point x="4174.0" y="339.0" type="line"/>
      <point x="4173.0" y="338.0" type="line"/>
      <point x="4173.0" y="874.0" type="line"/>
      <point x="4174.0" y="873.0" type="line"/>
      <point x="1137.0" y="873.0" type="line"/>
      <point x="1137.0" y="1065.0" type="line"/>
      <point x="4588.0" y="1065.0" type="line"/>
      <point x="4587.0" y="1064.0" type="line"/>
      <point x="4587.0" y="1600.0" type="line"/>
      <point x="4588.0" y="1599.0" type="line"/>
      <point x="192.0" y="1599.0" type="line"/>
      <point x="193.0" y="1600.0" type="line"/>
      <point x="193.0" y="-2.4492935982947064e-16" type="line"/>
    </contour>
  </outline>
</glyph>
<glyph name="G.shadow" format="2">
  <advance width="5028"/>
  <outline>
    <contour>
      <point x="4973" y="1090" type="line" identifier="wLqQQx7QVN"/>
      <point x="4029" y="1090" type="line" identifier="fNVDqwQo2o"/>
      <point x="4029" y="1104" type="line" identifier="5BjRbcud80"/>
      <point x="1301" y="1104" type="line" identifier="dbOUe6OhxL"/>
      <point x="1098" y="912" type="line" identifier="sUWsr03vF4"/>
      <point x="1098" y="909" type="line"/>
      <point x="1251" y="1054" type="line"/>
      <point x="3979" y="1054" type="line"/>
      <point x="3979" y="1046" type="line"/>
      <point x="4929" y="1046" type="line"/>
    </contour>
    <contour>
      <point x="153" y="0" type="line" identifier="7lPhzTnk2Z"/>
      <point x="153" y="1101" type="line" identifier="V1EWIdPahq"/>
      <point x="643" y="1600" type="line" identifier="lfZev3ICaC"/>
      <point x="593" y="1550" type="line"/>
      <point x="103" y="1051" type="line"/>
      <point x="103" y="-50" type="line"/>
      <point x="4924" y="-50" type="line"/>
      <point x="4974" y="0" type="line" identifier="qJVLZGnkwh"/>
    </contour>
    <contour>
      <point x="3069" y="500" type="line"/>
      <point x="3979" y="500" type="line"/>
      <point x="3979" y="496" type="line"/>
      <point x="4029" y="496" type="line" identifier="Y750RHTvDj"/>
      <point x="4029" y="550" type="line" identifier="4m6dHLVhZq"/>
      <point x="3119" y="550" type="line" identifier="EARaY3Su65"/>
      <point x="3119" y="1046" type="line" identifier="qcvimxjndX"/>
      <point x="3069" y="996" type="line"/>
    </contour>
  </outline>
</glyph>
<glyph name="G.wide.shadow" format="2">
  <advance width="5039"/>
  <outline>
    <contour>
      <point x="1300" y="1104" type="line" identifier="dbOUe6OhxL"/>
      <point x="1098" y="912" type="line" identifier="sUWsr03vF4"/>
      <point x="1098" y="905" type="line"/>
      <point x="1150" y="954" type="line"/>
      <point x="2878" y="954" type="line"/>
      <point x="2816" y="892" type="line"/>
      <point x="2816" y="496" type="line"/>
      <point x="4030" y="496" type="line" identifier="Y750RHTvDj"/>
      <point x="4030" y="550" type="line" identifier="4m6dHLVhZq"/>
      <point x="2966" y="550" type="line" identifier="EARaY3Su65"/>
      <point x="2966" y="1042" type="line" identifier="qcvimxjndX"/>
      <point x="4912" y="1042" type="line"/>
      <point x="4974" y="1104" type="line" identifier="5BjRbcud80"/>
    </contour>
    <contour>
      <point x="153" y="0" type="line" identifier="7lPhzTnk2Z"/>
      <point x="153" y="1101" type="line" identifier="V1EWIdPahq"/>
      <point x="641" y="1600" type="line" identifier="lfZev3ICaC"/>
      <point x="491" y="1450" type="line"/>
      <point x="3" y="951" type="line"/>
      <point x="3" y="-150" type="line"/>
      <point x="4825" y="-150" type="line"/>
      <point x="4975" y="0" type="line" identifier="qJVLZGnkwh"/>
    </contour>
    <contour>
      <point x="4976.0" y="-1.0000000000000002" type="line"/>
      <point x="152.0" y="-0.9999999999999998" type="line"/>
      <point x="152.0" y="1101.407700276865" type="line"/>
      <point x="640.5792430158114" y="1601.0" type="line"/>
      <point x="4975.0" y="1601.0" type="line"/>
      <point x="4975.0" y="1103.0" type="line"/>
      <point x="1300.0" y="1103.0" type="line"/>
      <point x="1300.6889380440743" y="1103.2751797661301" type="line"/>
      <point x="1098.6889380440743" y="911.2751797661302" type="line"/>
      <point x="1099.0" y="912.0" type="line"/>
      <point x="1099.0" y="496.0" type="line"/>
      <point x="1098.0" y="497.0" type="line"/>
      <point x="4030.0" y="497.0" type="line"/>
      <point x="4029.0" y="496.0" type="line"/>
      <point x="4029.0" y="550.0" type="line"/>
      <point x="4030.0" y="549.0" type="line"/>
      <point x="2965.0" y="549.0" type="line"/>
      <point x="2965.0" y="1043.0" type="line"/>
      <point x="4976.0" y="1043.0" type="line"/>
    </contour>
    <contour>
      <point x="153.0" y="1.0" type="line"/>
      <point x="4975.0" y="1.0" type="line"/>
      <point x="4974.0" y="1.2246467991473532e-16" type="line"/>
      <point x="4974.0" y="1042.0" type="line"/>
      <point x="4975.0" y="1041.0" type="line"/>
      <point x="2966.0" y="1041.0" type="line"/>
      <point x="2967.0" y="1042.0" type="line"/>
      <point x="2967.0" y="550.0" type="line"/>
      <point x="2966.0" y="551.0" type="line"/>
      <point x="4031.0" y="551.0" type="line"/>
      <point x="4031.0" y="495.0" type="line"/>
      <point x="1097.0" y="495.0" type="line"/>
      <point x="1097.0" y="912.4291573846731" type="line"/>
      <point x="1299.6005740015416" y="1105.0" type="line"/>
      <point x="4974.0" y="1105.0" type="line"/>
      <point x="4973.0" y="1104.0" type="line"/>
      <point x="4973.0" y="1600.0" type="line"/>
      <point x="4974.0" y="1599.0" type="line"/>
      <point x="641.0" y="1599.0" type="line"/>
      <point x="641.7149430042799" y="1599.3008172623474" type="line"/>
      <point x="153.7149430042799" y="1100.3008172623474" type="line"/>
      <point x="154.0" y="1101.0" type="line"/>
      <point x="154.0" y="-2.4492935982947064e-16" type="line"/>
    </contour>
  </outline>
</glyph>
<glyph name="H.shadow" format="2">
  <advance width="5267"/>
  <outline>
    <contour>
      <point x="4300" y="531" type="line" identifier="7JgTtdb0jg"/>
      <point x="1138" y="531" type="line" identifier="QjywsYY2yB"/>
      <point x="1138" y="381" type="line"/>
      <point x="4150" y="381" type="line"/>
      <point x="4150" y="-150" type="line"/>
      <point x="5095" y="-150" type="line"/>
      <point x="5245" y="0" type="line" identifier="oOtn61SmRY"/>
      <point x="4300" y="0" type="line" identifier="njzlIRBsoY"/>
    </contour>
    <contour>
      <point x="4150" y="1067" type="line"/>
      <point x="4300" y="1067" type="line" identifier="MTAeavIVWY"/>
      <point x="4300" y="1600" type="line" identifier="db0bPhBdaU"/>
      <point x="4150" y="1450" type="line"/>
    </contour>
    <contour>
      <point x="192" y="0" type="line" identifier="uqAJBjDIOT"/>
      <point x="192" y="1600" type="line" identifier="ZnCDQVdtyD"/>
      <point x="42" y="1450" type="line"/>
      <point x="42" y="-150" type="line"/>
      <point x="988" y="-150" type="line"/>
      <point x="1138" y="0" type="line" identifier="WUaPOcaxKT"/>
    </contour>
    <contour>
      <point x="1139.0" y="-1.0000000000000002" type="line"/>
      <point x="191.0" y="-0.9999999999999998" type="line"/>
      <point x="191.0" y="1601.0" type="line"/>
      <point x="1139.0" y="1601.0" type="line"/>
      <point x="1139.0" y="1067.0" type="line"/>
      <point x="1138.0" y="1068.0" type="line"/>
      <point x="4300.0" y="1068.0" type="line"/>
      <point x="4299.0" y="1067.0" type="line"/>
      <point x="4299.0" y="1601.0" type="line"/>
      <point x="5246.0" y="1601.0" type="line"/>
      <point x="5246.0" y="-1.0000000000000002" type="line"/>
      <point x="4299.0" y="-0.9999999999999998" type="line"/>
      <point x="4299.0" y="531.0" type="line"/>
      <point x="4300.0" y="530.0" type="line"/>
      <point x="1138.0" y="530.0" type="line"/>
      <point x="1139.0" y="531.0" type="line"/>
    </contour>
    <contour>
      <point x="192.0" y="1.0" type="line"/>
      <point x="1138.0" y="1.0" type="line"/>
      <point x="1137.0" y="1.2246467991473532e-16" type="line"/>
      <point x="1137.0" y="532.0" type="line"/>
      <point x="4301.0" y="532.0" type="line"/>
      <point x="4301.0" y="-2.4492935982947064e-16" type="line"/>
      <point x="4300.0" y="1.0" type="line"/>
      <point x="5245.0" y="1.0" type="line"/>
      <point x="5244.0" y="1.2246467991473532e-16" type="line"/>
      <point x="5244.0" y="1600.0" type="line"/>
      <point x="5245.0" y="1599.0" type="line"/>
      <point x="4300.0" y="1599.0" type="line"/>
      <point x="4301.0" y="1600.0" type="line"/>
      <point x="4301.0" y="1066.0" type="line"/>
      <point x="1137.0" y="1066.0" type="line"/>
      <point x="1137.0" y="1600.0" type="line"/>
      <point x="1138.0" y="1599.0" type="line"/>
      <point x="192.0" y="1599.0" type="line"/>
      <point x="193.0" y="1600.0" type="line"/>
      <point x="193.0" y="-2.4492935982947064e-16" type="line"/>
    </contour>
  </outline>
</glyph>
<glyph name="I.narrow.shadow" format="2">
  <advance width="1543"/>
  <outline>
    <contour>
      <point x="1279" y="0" type="line" identifier="1m237t4hyw"/>
      <point x="333" y="0" type="line" identifier="S4rO5KuHiL"/>
      <point x="333" y="1602" type="line" identifier="zfocDyDTCM"/>
      <point x="283" y="1552" type="line"/>
      <point x="283" y="-50" type="line"/>
      <point x="1229" y="-50" type="line"/>
    </contour>
  </outline>
</glyph>
<glyph name="I.shadow" format="2">
  <advance width="4498"/>
  <outline>
    <contour>
      <point x="2807" y="914" type="line"/>
      <point x="4394" y="914" type="line"/>
      <point x="4544" y="1064" type="line" identifier="9RiQmr3G8U"/>
      <point x="2807" y="1064" type="line" identifier="v7N4yg5XNk"/>
    </contour>
    <contour>
      <point x="124" y="0" type="line" identifier="u8XZE2STzL"/>
      <point x="124" y="536" type="line" identifier="aCoxe3fSmw"/>
      <point x="-26" y="386" type="line"/>
      <point x="-26" y="-150" type="line"/>
      <point x="4394" y="-150" type="line"/>
      <point x="4544" y="0" type="line" identifier="1Ty0JfMohF"/>
    </contour>
    <contour>
      <point x="-26" y="914" type="line"/>
      <point x="1711" y="914" type="line"/>
      <point x="1711" y="536" type="line"/>
      <point x="1861" y="536" type="line" identifier="S4rO5KuHiL"/>
      <point x="1861" y="1064" type="line" identifier="zfocDyDTCM"/>
      <point x="124" y="1064" type="line" identifier="O5ZoWKLuW7"/>
      <point x="124" y="1600" type="line" identifier="PL3Zqx19x8"/>
      <point x="-26" y="1450" type="line"/>
    </contour>
    <contour>
      <point x="4545.0" y="-1.0000000000000002" type="line"/>
      <point x="123.0" y="-0.9999999999999998" type="line"/>
      <point x="123.0" y="537.0" type="line"/>
      <point x="1861.0" y="537.0" type="line"/>
      <point x="1860.0" y="536.0" type="line"/>
      <point x="1860.0" y="1064.0" type="line"/>
      <point x="1861.0" y="1063.0" type="line"/>
      <point x="123.0" y="1063.0" type="line"/>
      <point x="123.0" y="1601.0" type="line"/>
      <point x="4545.0" y="1601.0" type="line"/>
      <point x="4545.0" y="1063.0" type="line"/>
      <point x="2807.0" y="1063.0" type="line"/>
      <point x="2808.0" y="1064.0" type="line"/>
      <point x="2808.0" y="536.0" type="line"/>
      <point x="2807.0" y="537.0" type="line"/>
      <point x="4545.0" y="537.0" type="line"/>
    </contour>
    <contour>
      <point x="124.0" y="1.0" type="line"/>
      <point x="4544.0" y="1.0" type="line"/>
      <point x="4543.0" y="1.2246467991473532e-16" type="line"/>
      <point x="4543.0" y="536.0" type="line"/>
      <point x="4544.0" y="535.0" type="line"/>
      <point x="2806.0" y="535.0" type="line"/>
      <point x="2806.0" y="1065.0" type="line"/>
      <point x="4544.0" y="1065.0" type="line"/>
      <point x="4543.0" y="1064.0" type="line"/>
      <point x="4543.0" y="1600.0" type="line"/>
      <point x="4544.0" y="1599.0" type="line"/>
      <point x="124.0" y="1599.0" type="line"/>
      <point x="125.0" y="1600.0" type="line"/>
      <point x="125.0" y="1064.0" type="line"/>
      <point x="124.0" y="1065.0" type="line"/>
      <point x="1862.0" y="1065.0" type="line"/>
      <point x="1862.0" y="535.0" type="line"/>
      <point x="124.0" y="535.0" type="line"/>
      <point x="125.0" y="536.0" type="line"/>
      <point x="125.0" y="-2.4492935982947064e-16" type="line"/>
    </contour>
  </outline>
</glyph>
<glyph name="J.shadow" format="2">
  <advance width="4930"/>
  <outline>
    <contour>
      <point x="234" y="914" type="line"/>
      <point x="3812" y="914" type="line"/>
      <point x="3812" y="536" type="line"/>
      <point x="3962" y="536" type="line" identifier="zFXsE8BUYG"/>
      <point x="3962" y="1064" type="line" identifier="46RrD1WET2"/>
      <point x="384" y="1064" type="line" identifier="AdYfGKx8QJ"/>
      <point x="384" y="1600" type="line" identifier="TbrXnCyMEi"/>
      <point x="234" y="1450" type="line"/>
    </contour>
    <contour>
      <point x="444" y="0" type="line" identifier="jiO9eX9U07"/>
      <point x="124" y="889" type="line" identifier="7exNZv1XSc"/>
      <point x="-26" y="739" type="line"/>
      <point x="294" y="-150" type="line"/>
      <point x="4758" y="-150" type="line"/>
      <point x="4908" y="0" type="line" identifier="wgpFs1yguc"/>
    </contour>
    <contour>
      <point x="4909.0" y="-1.0000000000000002" type="line"/>
      <point x="443.29714382480523" y="-0.9999999999999998" type="line"/>
      <point x="122.57723381355665" y="890.0" type="line"/>
      <point x="1024.663336914688" y="890.0" type="line"/>
      <point x="1173.9212911218742" y="536.3888735896863" type="line"/>
      <point x="1173.0" y="537.0" type="line"/>
      <point x="3962.0" y="537.0" type="line"/>
      <point x="3961.0" y="536.0" type="line"/>
      <point x="3961.0" y="1064.0" type="line"/>
      <point x="3962.0" y="1063.0" type="line"/>
      <point x="383.0" y="1063.0" type="line"/>
      <point x="383.0" y="1601.0" type="line"/>
      <point x="4909.0" y="1601.0" type="line"/>
    </contour>
    <contour>
      <point x="444.0" y="1.0" type="line"/>
      <point x="4908.0" y="1.0" type="line"/>
      <point x="4907.0" y="1.2246467991473532e-16" type="line"/>
      <point x="4907.0" y="1600.0" type="line"/>
      <point x="4908.0" y="1599.0" type="line"/>
      <point x="384.0" y="1599.0" type="line"/>
      <point x="385.0" y="1600.0" type="line"/>
      <point x="385.0" y="1064.0" type="line"/>
      <point x="384.0" y="1065.0" type="line"/>
      <point x="3963.0" y="1065.0" type="line"/>
      <point x="3963.0" y="535.0" type="line"/>
      <point x="1172.336663085312" y="535.0" type="line"/>
      <point x="1023.0787088781257" y="888.6111264103137" type="line"/>
      <point x="1024.0" y="888.0" type="line"/>
      <point x="124.0" y="888.0" type="line"/>
      <point x="124.94090090323415" y="889.3386819899156" type="line"/>
      <point x="444.94090090323414" y="0.3386819899155548" type="line"/>
    </contour>
  </outline>
</glyph>
<glyph name="K.alt" format="2">
  <advance width="5516"/>
  <outline>
    <contour>
      <point x="1176" y="0" type="line" identifier="wmNm7XZsaF"/>
      <point x="1176" y="442" type="line" identifier="O22liaP9Qk"/>
      <point x="3860" y="442" type="line" identifier="ELFBWIb1vd"/>
      <point x="4155" y="438" type="line" identifier="DzXo67YEfw"/>
      <point x="4155" y="0" type="line" identifier="aKpYWD78l2"/>
      <point x="5100" y="0" type="line" identifier="ChS7KlqGi6"/>
      <point x="5100" y="962" type="line" identifier="sWLgkU8Vey"/>
      <point x="4718" y="970" type="line" identifier="Of0iQc0wBG"/>
      <point x="4857" y="1600" type="line" identifier="dMJ1ywOKQQ"/>
      <point x="3894" y="1600" type="line" identifier="08OWjR2YBJ"/>
      <point x="3769" y="978" type="line" identifier="g4YLdZEoM3"/>
      <point x="1176" y="978" type="line" identifier="uZuki3Isec"/>
      <point x="1176" y="1600" type="line" identifier="nRfcNgqJ4H"/>
      <point x="231" y="1600" type="line" identifier="3XJlWt89ad"/>
      <point x="231" y="0" type="line" identifier="wdbO8kCovY"/>
    </contour>
  </outline>
</glyph>
<glyph name="K.alt.shadow" format="2">
  <advance width="5446"/>
  <outline>
    <contour>
      <point x="3729" y="978" type="line"/>
      <point x="3769" y="978" type="line" identifier="g4YLdZEoM3"/>
      <point x="3894" y="1600" type="line" identifier="08OWjR2YBJ"/>
      <point x="3844" y="1550" type="line"/>
    </contour>
    <contour>
      <point x="4155" y="438" type="line" identifier="DzXo67YEfw"/>
      <point x="3860" y="442" type="line" identifier="ELFBWIb1vd"/>
      <point x="1176" y="442" type="line" identifier="O22liaP9Qk"/>
      <point x="1176" y="392" type="line"/>
      <point x="3810" y="392" type="line"/>
      <point x="4105" y="388" type="line"/>
      <point x="4105" y="-50" type="line"/>
      <point x="5050" y="-50" type="line"/>
      <point x="5100" y="0" type="line" identifier="ChS7KlqGi6"/>
      <point x="4155" y="0" type="line" identifier="aKpYWD78l2"/>
    </contour>
    <contour>
      <point x="1176" y="0" type="line" identifier="wmNm7XZsaF"/>
      <point x="231" y="0" type="line" identifier="wdbO8kCovY"/>
      <point x="231" y="1600" type="line" identifier="3XJlWt89ad"/>
      <point x="181" y="1550" type="line"/>
      <point x="181" y="-50" type="line"/>
      <point x="1126" y="-50" type="line"/>
    </contour>
  </outline>
</glyph>
<glyph name="K.narrow.shadow" format="2">
  <advance width="5161"/>
  <outline>
    <contour>
      <point x="4877" y="677" type="line"/>
      <point x="5177" y="0" type="line"/>
      <point x="4877" y="677" type="line"/>
      <point x="4963" y="681" type="line"/>
      <point x="5113" y="831" type="line"/>
      <point x="4815" y="817" type="line"/>
      <point x="4877" y="677" type="line"/>
    </contour>
    <contour>
      <point x="4083" y="-150" type="line"/>
      <point x="5027" y="-150" type="line"/>
      <point x="5177" y="0" type="line"/>
      <point x="4233" y="0" type="line"/>
      <point x="3992" y="633" type="line"/>
      <point x="1139" y="484" type="line"/>
      <point x="1139" y="342" type="line"/>
      <point x="3842" y="483" type="line"/>
    </contour>
    <contour>
      <point x="4167" y="1178" type="line"/>
      <point x="4167" y="1600" type="line"/>
      <point x="4017" y="1450" type="line"/>
      <point x="4017" y="1170" type="line"/>
      <point x="1139" y="1020" type="line"/>
      <point x="4017" y="1170" type="line"/>
      <point x="4017" y="1170" type="line"/>
    </contour>
    <contour>
      <point x="1139" y="0" type="line"/>
      <point x="192" y="0" type="line"/>
      <point x="192" y="1600" type="line"/>
      <point x="42" y="1450" type="line"/>
      <point x="42" y="-150" type="line"/>
      <point x="989" y="-150" type="line"/>
    </contour>
    <contour>
      <point x="1140.0" y="484.0" type="line"/>
      <point x="1140.0" y="-1.0000000000000002" type="line"/>
      <point x="191.0" y="-0.9999999999999998" type="line"/>
      <point x="191.0" y="1601.0" type="line"/>
      <point x="1140.0" y="1601.0" type="line"/>
      <point x="1140.0" y="1020.0" type="line"/>
      <point x="1138.9478912339403" y="1020.9986414153738" type="line"/>
      <point x="4166.94789123394" y="1178.9986414153739" type="line"/>
      <point x="4166.0" y="1178.0" type="line"/>
      <point x="4166.0" y="1601.0" type="line"/>
      <point x="5114.0" y="1601.0" type="line"/>
      <point x="5114.0" y="830.0458769201224" type="line"/>
      <point x="4815.046928106621" y="816.0011017305005" type="line"/>
      <point x="4815.914272426989" y="817.4050999003305" type="line"/>
      <point x="5178.536850351003" y="-1.0000000000000002" type="line"/>
      <point x="4232.310702016879" y="-0.9999999999999998" type="line"/>
      <point x="3991.0654421179265" y="632.6441888632232" type="line"/>
      <point x="3992.0521546491423" y="632.0013609798466" type="line"/>
      <point x="1139.0521546491423" y="483.00136097984665" type="line"/>
    </contour>
    <contour>
      <point x="1138.0" y="1.2246467991473532e-16" type="line"/>
      <point x="1138.0" y="484.94913710733255" type="line"/>
      <point x="3992.675350626932" y="634.0366335123143" type="line"/>
      <point x="4233.934557882073" y="0.3558111367767804" type="line"/>
      <point x="4233.0" y="1.0" type="line"/>
      <point x="5177.0" y="1.0" type="line"/>
      <point x="5176.085727573011" y="-0.40509990033047133" type="line"/>
      <point x="4813.494009717294" y="817.9303517243143" type="line"/>
      <point x="5112.953071893379" y="831.9988982694995" type="line"/>
      <point x="5112.0" y="831.0" type="line"/>
      <point x="5112.0" y="1600.0" type="line"/>
      <point x="5113.0" y="1599.0" type="line"/>
      <point x="4167.0" y="1599.0" type="line"/>
      <point x="4168.0" y="1600.0" type="line"/>
      <point x="4168.0" y="1177.0508192236493" type="line"/>
      <point x="1138.0" y="1018.9464599105717" type="line"/>
      <point x="1138.0" y="1600.0" type="line"/>
      <point x="1139.0" y="1599.0" type="line"/>
      <point x="192.0" y="1599.0" type="line"/>
      <point x="193.0" y="1600.0" type="line"/>
      <point x="193.0" y="-2.4492935982947064e-16" type="line"/>
      <point x="192.0" y="1.0" type="line"/>
      <point x="1139.0" y="1.0" type="line"/>
    </contour>
  </outline>
</glyph>
<glyph name="K.shadow" format="2">
  <advance width="5229"/>
  <outline>
    <contour>
      <point x="4875" y="799" type="line" identifier="Of0iQc0wBG"/>
      <point x="5245" y="560" type="line" identifier="sWLgkU8Vey"/>
      <point x="4920" y="770" type="line"/>
      <point x="5093" y="876" type="line"/>
      <point x="5243" y="1026" type="line" identifier="dWvz0rZ5Hv"/>
      <point x="4875" y="801" type="line" identifier="j4jnmtDJYB"/>
    </contour>
    <contour>
      <point x="4005" y="1051" type="line" identifier="g4YLdZEoM3"/>
      <point x="4147" y="1135" type="line"/>
      <point x="4147" y="1135" type="line"/>
      <point x="4297" y="1224" type="line" identifier="F62GU90G6q"/>
      <point x="4297" y="1600" type="line" identifier="08OWjR2YBJ"/>
      <point x="4147" y="1450" type="line"/>
      <point x="4147" y="1135" type="line"/>
    </contour>
    <contour>
      <point x="4300" y="327" type="line" identifier="DzXo67YEfw"/>
      <point x="4006" y="515" type="line" identifier="ELFBWIb1vd"/>
      <point x="1138" y="515" type="line" identifier="O22liaP9Qk"/>
      <point x="1138" y="365" type="line"/>
      <point x="3856" y="365" type="line"/>
      <point x="4150" y="177" type="line"/>
      <point x="4150" y="-150" type="line"/>
      <point x="5095" y="-150" type="line"/>
      <point x="5245" y="0" type="line" identifier="ChS7KlqGi6"/>
      <point x="4300" y="0" type="line" identifier="aKpYWD78l2"/>
    </contour>
    <contour>
      <point x="1138" y="0" type="line" identifier="wmNm7XZsaF"/>
      <point x="192" y="0" type="line" identifier="wdbO8kCovY"/>
      <point x="192" y="1600" type="line" identifier="3XJlWt89ad"/>
      <point x="42" y="1450" type="line"/>
      <point x="42" y="-150" type="line"/>
      <point x="988" y="-150" type="line"/>
    </contour>
    <contour>
      <point x="1139.0" y="515.0" type="line"/>
      <point x="1139.0" y="-1.0000000000000002" type="line"/>
      <point x="191.0" y="-0.9999999999999998" type="line"/>
      <point x="191.0" y="1601.0" type="line"/>
      <point x="1139.0" y="1601.0" type="line"/>
      <point x="1139.0" y="1051.0" type="line"/>
      <point x="1138.0" y="1052.0" type="line"/>
      <point x="4005.0" y="1052.0" type="line"/>
      <point x="4004.4902783753255" y="1051.8603393896242" type="line"/>
      <point x="4296.490278375325" y="1224.8603393896242" type="line"/>
      <point x="4296.0" y="1224.0" type="line"/>
      <point x="4296.0" y="1601.0" type="line"/>
      <point x="5244.0" y="1601.0" type="line"/>
      <point x="5244.0" y="1025.43930984421" type="line"/>
      <point x="4875.521637551932" y="800.1468328039509" type="line"/>
      <point x="4876.0" y="801.0" type="line"/>
      <point x="4876.0" y="799.0" type="line"/>
      <point x="4875.5425921816695" y="799.83999626451" type="line"/>
      <point x="5246.0" y="560.5445355386155" type="line"/>
      <point x="5246.0" y="-1.0000000000000002" type="line"/>
      <point x="4299.0" y="-0.9999999999999998" type="line"/>
      <point x="4299.0" y="327.0" type="line"/>
      <point x="4299.461271607853" y="326.157520493131" type="line"/>
      <point x="4005.4612716078527" y="514.1575204931311" type="line"/>
      <point x="4006.0" y="514.0" type="line"/>
      <point x="1138.0" y="514.0" type="line"/>
    </contour>
    <contour>
      <point x="1137.0" y="1.2246467991473532e-16" type="line"/>
      <point x="1137.0" y="516.0" type="line"/>
      <point x="4006.292393152889" y="516.0" type="line"/>
      <point x="4301.0" y="327.54751671001077" type="line"/>
      <point x="4301.0" y="-2.4492935982947064e-16" type="line"/>
      <point x="4300.0" y="1.0" type="line"/>
      <point x="5245.0" y="1.0" type="line"/>
      <point x="5244.0" y="1.2246467991473532e-16" type="line"/>
      <point x="5244.0" y="560.0" type="line"/>
      <point x="5244.4574078183305" y="559.16000373549" type="line"/>
      <point x="4874.0" y="798.4554644613845" type="line"/>
      <point x="4874.0" y="801.5606901557902" type="line"/>
      <point x="5242.478362448068" y="1026.853167196049" type="line"/>
      <point x="5242.0" y="1026.0" type="line"/>
      <point x="5242.0" y="1600.0" type="line"/>
      <point x="5243.0" y="1599.0" type="line"/>
      <point x="4297.0" y="1599.0" type="line"/>
      <point x="4298.0" y="1600.0" type="line"/>
      <point x="4298.0" y="1223.4301337574007" type="line"/>
      <point x="4005.2739938892423" y="1050.0" type="line"/>
      <point x="1137.0" y="1050.0" type="line"/>
      <point x="1137.0" y="1600.0" type="line"/>
      <point x="1138.0" y="1599.0" type="line"/>
      <point x="192.0" y="1599.0" type="line"/>
      <point x="193.0" y="1600.0" type="line"/>
      <point x="193.0" y="-2.4492935982947064e-16" type="line"/>
      <point x="192.0" y="1.0" type="line"/>
      <point x="1138.0" y="1.0" type="line"/>
    </contour>
  </outline>
</glyph>
<glyph name="L.shadow" format="2">
  <advance width="4406"/>
  <outline>
    <contour>
      <point x="192" y="0" type="line" identifier="XkJNfQlnnt"/>
      <point x="192" y="1600" type="line" identifier="XFf4mMUzYo"/>
      <point x="42" y="1450" type="line"/>
      <point x="42" y="-150" type="line"/>
      <point x="4302" y="-150" type="line"/>
      <point x="4452" y="0" type="line" identifier="82EXZEgt46"/>
    </contour>
    <contour>
      <point x="3356" y="536" type="line"/>
      <point x="3506" y="536" type="line" identifier="cqpSxwFiM3"/>
      <point x="3506" y="1041" type="line" identifier="t7Q9RRLHt8"/>
      <point x="3356" y="891" type="line"/>
    </contour>
    <contour>
      <point x="4453.0" y="-1.0000000000000002" type="line"/>
      <point x="191.0" y="-0.9999999999999998" type="line"/>
      <point x="191.0" y="1601.0" type="line"/>
      <point x="1139.0" y="1601.0" type="line"/>
      <point x="1139.0" y="536.0" type="line"/>
      <point x="1138.0" y="537.0" type="line"/>
      <point x="3506.0" y="537.0" type="line"/>
      <point x="3505.0" y="536.0" type="line"/>
      <point x="3505.0" y="1042.0" type="line"/>
      <point x="4453.0" y="1042.0" type="line"/>
    </contour>
    <contour>
      <point x="192.0" y="1.0" type="line"/>
      <point x="4452.0" y="1.0" type="line"/>
      <point x="4451.0" y="1.2246467991473532e-16" type="line"/>
      <point x="4451.0" y="1041.0" type="line"/>
      <point x="4452.0" y="1040.0" type="line"/>
      <point x="3506.0" y="1040.0" type="line"/>
      <point x="3507.0" y="1041.0" type="line"/>
      <point x="3507.0" y="535.0" type="line"/>
      <point x="1137.0" y="535.0" type="line"/>
      <point x="1137.0" y="1600.0" type="line"/>
      <point x="1138.0" y="1599.0" type="line"/>
      <point x="192.0" y="1599.0" type="line"/>
      <point x="193.0" y="1600.0" type="line"/>
      <point x="193.0" y="-2.4492935982947064e-16" type="line"/>
    </contour>
  </outline>
</glyph>
<glyph name="L.wide.shadow" format="2">
  <advance width="4126"/>
  <outline>
    <contour>
      <point x="97" y="0" type="line" identifier="XkJNfQlnnt"/>
      <point x="97" y="1600" type="line" identifier="XFf4mMUzYo"/>
      <point x="-53" y="1450" type="line"/>
      <point x="-53" y="-150" type="line"/>
      <point x="4022" y="-150" type="line"/>
      <point x="4172" y="0" type="line" identifier="82EXZEgt46"/>
    </contour>
    <contour>
      <point x="4173.0" y="-1.0000000000000002" type="line"/>
      <point x="96.0" y="-0.9999999999999998" type="line"/>
      <point x="96.0" y="1601.0" type="line"/>
      <point x="1043.0" y="1601.0" type="line"/>
      <point x="1043.0" y="536.0" type="line"/>
      <point x="1042.0" y="537.0" type="line"/>
      <point x="4173.0" y="537.0" type="line"/>
    </contour>
    <contour>
      <point x="97.0" y="1.0" type="line"/>
      <point x="4172.0" y="1.0" type="line"/>
      <point x="4171.0" y="1.2246467991473532e-16" type="line"/>
      <point x="4171.0" y="536.0" type="line"/>
      <point x="4172.0" y="535.0" type="line"/>
      <point x="1041.0" y="535.0" type="line"/>
      <point x="1041.0" y="1600.0" type="line"/>
      <point x="1042.0" y="1599.0" type="line"/>
      <point x="97.0" y="1599.0" type="line"/>
      <point x="98.0" y="1600.0" type="line"/>
      <point x="98.0" y="-2.4492935982947064e-16" type="line"/>
    </contour>
  </outline>
</glyph>
<glyph name="M.narrow" format="2">
  <advance width="7221"/>
  <outline>
    <contour>
      <point x="6121" y="0" type="line" smooth="yes" identifier="12Pyby1xY2"/>
      <point x="7067" y="0" type="line" smooth="yes" identifier="5LJg4ajoG6"/>
      <point x="7067" y="1599" type="line" smooth="yes" identifier="ZqTZqAY3uY"/>
      <point x="686" y="1599" type="line" smooth="yes" identifier="R4lklfJsHA"/>
      <point x="192" y="1089" type="line" smooth="yes" identifier="7g7f8Wu7K4"/>
      <point x="192" y="0" type="line" smooth="yes" identifier="RTOJW56qXy"/>
      <point x="1139" y="0" type="line" identifier="JfSFAkWGZC"/>
      <point x="1139" y="805" type="line" smooth="yes" identifier="WWvGwSpq0g"/>
      <point x="1407" y="1063" type="line" smooth="yes" identifier="oee4nqI8Wl"/>
      <point x="3141" y="1063" type="line" identifier="Ljn2lpvpG8"/>
      <point x="3141" y="100" type="line" smooth="yes"/>
      <point x="4087" y="100" type="line"/>
      <point x="4087" y="1063" type="line" identifier="GlWB6PG54Z"/>
      <point x="6121" y="1063" type="line" identifier="iqeTRv7HXg"/>
    </contour>
  </outline>
</glyph>
<glyph name="M.narrow.shadow" format="2">
  <advance width="7051"/>
  <outline>
    <contour>
      <point x="6121" y="0" type="line" smooth="yes" identifier="12Pyby1xY2"/>
      <point x="6121" y="1063" type="line" identifier="iqeTRv7HXg"/>
      <point x="4087" y="1063" type="line" identifier="GlWB6PG54Z"/>
      <point x="4087" y="913" type="line"/>
      <point x="5971" y="913" type="line"/>
      <point x="5971" y="-150" type="line"/>
      <point x="6917" y="-150" type="line"/>
      <point x="7067" y="0" type="line" smooth="yes" identifier="5LJg4ajoG6"/>
    </contour>
    <contour>
      <point x="3141" y="1063" type="line" identifier="Ljn2lpvpG8"/>
      <point x="1407" y="1063" type="line" smooth="yes" identifier="oee4nqI8Wl"/>
      <point x="1139" y="805" type="line" smooth="yes" identifier="WWvGwSpq0g"/>
      <point x="1139" y="799" type="line"/>
      <point x="1257" y="913" type="line"/>
      <point x="2991" y="913" type="line"/>
      <point x="2991" y="-50" type="line"/>
      <point x="3937" y="-50" type="line"/>
      <point x="4087" y="100" type="line"/>
      <point x="3141" y="100" type="line" smooth="yes"/>
    </contour>
    <contour>
      <point x="42" y="939" type="line"/>
      <point x="42" y="-150" type="line"/>
      <point x="989" y="-150" type="line"/>
      <point x="1139" y="0" type="line" identifier="JfSFAkWGZC"/>
      <point x="192" y="0" type="line" smooth="yes" identifier="RTOJW56qXy"/>
      <point x="192" y="1089" type="line" smooth="yes" identifier="7g7f8Wu7K4"/>
      <point x="686" y="1599" type="line" smooth="yes" identifier="R4lklfJsHA"/>
      <point x="536" y="1449" type="line"/>
    </contour>
    <contour>
      <point x="7068.0" y="-1.0000000000000002" type="line"/>
      <point x="6120.0" y="-0.9999999999999998" type="line"/>
      <point x="6120.0" y="1063.0" type="line"/>
      <point x="6121.0" y="1062.0" type="line"/>
      <point x="4087.0" y="1062.0" type="line"/>
      <point x="4088.0" y="1063.0" type="line"/>
      <point x="4088.0" y="99.0" type="line"/>
      <point x="3140.0" y="99.0" type="line"/>
      <point x="3140.0" y="1063.0" type="line"/>
      <point x="3141.0" y="1062.0" type="line"/>
      <point x="1407.0" y="1062.0" type="line"/>
      <point x="1407.6935383637797" y="1062.279580304291" type="line"/>
      <point x="1139.6935383637797" y="804.2795803042908" type="line"/>
      <point x="1140.0" y="805.0" type="line"/>
      <point x="1140.0" y="-1.0000000000000002" type="line"/>
      <point x="191.0" y="-0.9999999999999998" type="line"/>
      <point x="191.0" y="1089.4049096187453" type="line"/>
      <point x="685.5764208790978" y="1600.0" type="line"/>
      <point x="7068.0" y="1600.0" type="line"/>
    </contour>
    <contour>
      <point x="6121.0" y="1.0" type="line"/>
      <point x="7067.0" y="1.0" type="line"/>
      <point x="7066.0" y="1.2246467991473532e-16" type="line"/>
      <point x="7066.0" y="1599.0" type="line"/>
      <point x="7067.0" y="1598.0" type="line"/>
      <point x="686.0" y="1598.0" type="line"/>
      <point x="686.7182842116941" y="1598.3042501949471" type="line"/>
      <point x="192.71828421169414" y="1088.3042501949471" type="line"/>
      <point x="193.0" y="1089.0" type="line"/>
      <point x="193.0" y="-2.4492935982947064e-16" type="line"/>
      <point x="192.0" y="1.0" type="line"/>
      <point x="1139.0" y="1.0" type="line"/>
      <point x="1138.0" y="1.2246467991473532e-16" type="line"/>
      <point x="1138.0" y="805.4253931951688" type="line"/>
      <point x="1406.596878386414" y="1064.0" type="line"/>
      <point x="3142.0" y="1064.0" type="line"/>
      <point x="3142.0" y="100.0" type="line"/>
      <point x="3141.0" y="101.0" type="line"/>
      <point x="4087.0" y="101.0" type="line"/>
      <point x="4086.0" y="100.0" type="line"/>
      <point x="4086.0" y="1064.0" type="line"/>
      <point x="6122.0" y="1064.0" type="line"/>
      <point x="6122.0" y="-2.4492935982947064e-16" type="line"/>
    </contour>
  </outline>
</glyph>
<glyph name="M.shadow" format="2">
  <advance width="6674"/>
  <outline>
    <contour>
      <point x="42" y="-150" type="line"/>
      <point x="983" y="-150" type="line"/>
      <point x="1133" y="0" type="line"/>
      <point x="1133" y="914" type="line"/>
      <point x="1508" y="914" type="line"/>
      <point x="2631" y="-140" type="line"/>
      <point x="3914" y="-140" type="line"/>
      <point x="5035" y="914" type="line"/>
      <point x="5560" y="914" type="line"/>
      <point x="5560" y="-150" type="line"/>
      <point x="6502" y="-150" type="line"/>
      <point x="6652" y="0" type="line"/>
      <point x="6652" y="1600" type="line"/>
      <point x="4613" y="1600" type="line"/>
      <point x="3620" y="643" type="line" identifier="9aKZPM0HPh"/>
      <point x="3226" y="643" type="line"/>
      <point x="2229" y="1600" type="line"/>
      <point x="192" y="1600" type="line"/>
      <point x="42" y="1450" type="line"/>
    </contour>
    <contour>
      <point x="2781.684351382594" y="10.729152374433447" type="line"/>
      <point x="2781.0" y="11.0" type="line"/>
      <point x="4064.0" y="11.0" type="line"/>
      <point x="4063.315000287748" y="10.728543337224611" type="line"/>
      <point x="5184.603712734589" y="1065.0" type="line"/>
      <point x="5711.0" y="1065.0" type="line"/>
      <point x="5711.0" y="-1.2246467991473532e-16" type="line"/>
      <point x="5710.0" y="1.0" type="line"/>
      <point x="6652.0" y="1.0" type="line"/>
      <point x="6651.0" y="2.4492935982947064e-16" type="line"/>
      <point x="6651.0" y="1600.0" type="line"/>
      <point x="6652.0" y="1599.0" type="line"/>
      <point x="4613.0" y="1599.0" type="line"/>
      <point x="4613.693934255972" y="1599.2799616340856" type="line"/>
      <point x="3620.4034411497573" y="642.0" type="line"/>
      <point x="3225.5977261009857" y="642.0" type="line"/>
      <point x="2228.3075133606067" y="1599.278569300444" type="line"/>
      <point x="2229.0" y="1599.0" type="line"/>
      <point x="192.0" y="1599.0" type="line"/>
      <point x="193.0" y="1600.0" type="line"/>
      <point x="193.0" y="-1.2246467991473532e-16" type="line"/>
      <point x="192.0" y="1.0" type="line"/>
      <point x="1133.0" y="1.0" type="line"/>
      <point x="1132.0" y="2.4492935982947064e-16" type="line"/>
      <point x="1132.0" y="1065.0" type="line"/>
      <point x="1658.3957727454863" y="1065.0" type="line"/>
    </contour>
    <contour>
      <point x="1657.3156486174062" y="1063.2708476255666" type="line"/>
      <point x="1658.0" y="1063.0" type="line"/>
      <point x="1133.0" y="1063.0" type="line"/>
      <point x="1134.0" y="1064.0" type="line"/>
      <point x="1134.0" y="-1.0000000000000002" type="line"/>
      <point x="1133.0" y="-1.0" type="line"/>
      <point x="192.0" y="-1.0" type="line"/>
      <point x="191.0" y="-0.9999999999999998" type="line"/>
      <point x="191.0" y="1601.0" type="line"/>
      <point x="2229.4022738990143" y="1601.0" type="line"/>
      <point x="3226.6924866393933" y="643.721430699556" type="line"/>
      <point x="3226.0" y="644.0" type="line"/>
      <point x="3620.0" y="644.0" type="line"/>
      <point x="3619.3060657440283" y="643.7200383659144" type="line"/>
      <point x="4612.596558850242" y="1601.0" type="line"/>
      <point x="6653.0" y="1601.0" type="line"/>
      <point x="6653.0" y="-1.0000000000000002" type="line"/>
      <point x="6652.0" y="-1.0" type="line"/>
      <point x="5710.0" y="-1.0" type="line"/>
      <point x="5709.0" y="-0.9999999999999998" type="line"/>
      <point x="5709.0" y="1064.0" type="line"/>
      <point x="5710.0" y="1063.0" type="line"/>
      <point x="5185.0" y="1063.0" type="line"/>
      <point x="5185.684999712253" y="1063.2714566627753" type="line"/>
      <point x="4064.3962872654106" y="9.0" type="line"/>
      <point x="2780.6042272545137" y="9.0" type="line"/>
    </contour>
  </outline>
</glyph>
<glyph name="N.narrow.shadow" format="2">
  <advance width="6290"/>
  <outline>
    <contour>
      <point x="5321" y="1059" type="line"/>
      <point x="1543" y="1059" type="line"/>
      <point x="1138" y="713" type="line"/>
      <point x="1138" y="691" type="line"/>
      <point x="1393" y="909" type="line"/>
      <point x="5171" y="909" type="line"/>
      <point x="5171" y="-150" type="line"/>
      <point x="6118" y="-150" type="line"/>
      <point x="6268" y="0" type="line" smooth="yes"/>
      <point x="5321" y="0" type="line" smooth="yes"/>
    </contour>
    <contour>
      <point x="192" y="91" type="line" smooth="yes"/>
      <point x="192" y="1600" type="line"/>
      <point x="42" y="1450" type="line"/>
      <point x="42" y="-59" type="line"/>
      <point x="988" y="-59" type="line"/>
      <point x="1138" y="91" type="line"/>
    </contour>
    <contour>
      <point x="1139.0" y="90.0" type="line"/>
      <point x="191.0" y="90.0" type="line"/>
      <point x="191.0" y="1601.0" type="line"/>
      <point x="973.0" y="1601.0" type="line"/>
      <point x="973.0" y="1478.0" type="line"/>
      <point x="972.0" y="1479.0" type="line"/>
      <point x="1137.0" y="1479.0" type="line"/>
      <point x="1136.543835179119" y="1478.889895306309" type="line"/>
      <point x="1374.7586295815654" y="1601.0" type="line"/>
      <point x="6269.0" y="1601.0" type="line"/>
      <point x="6269.0" y="-1.0000000000000002" type="line"/>
      <point x="5320.0" y="-0.9999999999999998" type="line"/>
      <point x="5320.0" y="1059.0" type="line"/>
      <point x="5321.0" y="1058.0" type="line"/>
      <point x="1543.0" y="1058.0" type="line"/>
      <point x="1543.6495536855516" y="1058.2396842698022" type="line"/>
      <point x="1138.6495536855516" y="712.2396842698022" type="line"/>
      <point x="1139.0" y="713.0" type="line"/>
    </contour>
    <contour>
      <point x="192.0" y="92.0" type="line"/>
      <point x="1138.0" y="92.0" type="line"/>
      <point x="1137.0" y="91.0" type="line"/>
      <point x="1137.0" y="713.4609220887185" type="line"/>
      <point x="1542.6310016013556" y="1060.0" type="line"/>
      <point x="5322.0" y="1060.0" type="line"/>
      <point x="5322.0" y="-2.4492935982947064e-16" type="line"/>
      <point x="5321.0" y="1.0" type="line"/>
      <point x="6268.0" y="1.0" type="line"/>
      <point x="6267.0" y="1.2246467991473532e-16" type="line"/>
      <point x="6267.0" y="1600.0" type="line"/>
      <point x="6268.0" y="1599.0" type="line"/>
      <point x="1375.0" y="1599.0" type="line"/>
      <point x="1375.456164820881" y="1599.110104693691" type="line"/>
      <point x="1137.2413704184346" y="1477.0" type="line"/>
      <point x="971.0" y="1477.0" type="line"/>
      <point x="971.0" y="1600.0" type="line"/>
      <point x="972.0" y="1599.0" type="line"/>
      <point x="192.0" y="1599.0" type="line"/>
      <point x="193.0" y="1600.0" type="line"/>
      <point x="193.0" y="91.0" type="line"/>
    </contour>
  </outline>
</glyph>
<glyph name="N.shadow" format="2">
  <advance width="4584"/>
  <outline>
    <contour>
      <point x="1605" y="1064" type="line" identifier="MEnBDHq6zU"/>
      <point x="1134" y="1064" type="line" identifier="wfBbYd10Pm"/>
      <point x="1134" y="914" type="line"/>
      <point x="1455" y="914" type="line"/>
      <point x="2527" y="-150" type="line"/>
      <point x="4412" y="-150" type="line"/>
      <point x="4562" y="0" type="line" identifier="uKfuudIUvA"/>
      <point x="2677" y="0" type="line" identifier="3Nbopwznvn"/>
    </contour>
    <contour>
      <point x="3471" y="536" type="line"/>
      <point x="3621" y="536" type="line" identifier="VILP20cFmq"/>
      <point x="3621" y="1600" type="line" identifier="MUSJPjCIXg"/>
      <point x="3471" y="1450" type="line"/>
    </contour>
    <contour>
      <point x="193" y="0" type="line" identifier="CkwYPPvJLv"/>
      <point x="192" y="1600" type="line" identifier="dzUaaP1sjt"/>
      <point x="42" y="1450" type="line"/>
      <point x="43" y="-150" type="line"/>
      <point x="984" y="-150" type="line"/>
      <point x="1134" y="0" type="line" identifier="oHTJsN7drZ"/>
    </contour>
    <contour>
      <point x="1135.0" y="-1.0000000000000002" type="line"/>
      <point x="192.00062480468753" y="-0.9999999999999997" type="line"/>
      <point x="190.9993751506851" y="1600.9994464039028" type="line"/>
      <point x="1999.3882108813448" y="1602.0002149903617" type="line"/>
      <point x="3163.675035485155" y="536.7377852626485" type="line"/>
      <point x="3163.0" y="537.0" type="line"/>
      <point x="3621.0" y="537.0" type="line"/>
      <point x="3620.0" y="536.0" type="line"/>
      <point x="3620.0" y="1601.0" type="line"/>
      <point x="4563.0" y="1601.0" type="line"/>
      <point x="4563.0" y="-1.0000000000000002" type="line"/>
      <point x="2676.587978686149" y="-1.0" type="line"/>
      <point x="1604.2955464996294" y="1063.2902498567696" type="line"/>
      <point x="1605.0" y="1063.0" type="line"/>
      <point x="1134.0" y="1063.0" type="line"/>
      <point x="1135.0" y="1064.0" type="line"/>
    </contour>
    <contour>
      <point x="193.0" y="1.0" type="line"/>
      <point x="1134.0" y="1.0" type="line"/>
      <point x="1133.0" y="1.2246467991473532e-16" type="line"/>
      <point x="1133.0" y="1065.0" type="line"/>
      <point x="1605.4120213138508" y="1065.0" type="line"/>
      <point x="2677.7044535003706" y="0.7097501432304768" type="line"/>
      <point x="2677.0" y="1.0" type="line"/>
      <point x="4562.0" y="1.0" type="line"/>
      <point x="4561.0" y="1.2246467991473532e-16" type="line"/>
      <point x="4561.0" y="1600.0" type="line"/>
      <point x="4562.0" y="1599.0" type="line"/>
      <point x="3621.0" y="1599.0" type="line"/>
      <point x="3622.0" y="1600.0" type="line"/>
      <point x="3622.0" y="535.0" type="line"/>
      <point x="3162.611554143274" y="535.0" type="line"/>
      <point x="1998.3249645148449" y="1600.2622147373515" type="line"/>
      <point x="1999.0005534033464" y="1600.0000001531275" type="line"/>
      <point x="192.0005534033465" y="1599.0000001531275" type="line"/>
      <point x="192.99999980468755" y="1600.000624999878" type="line"/>
      <point x="193.99999980468755" y="0.0006249998779297515" type="line"/>
    </contour>
  </outline>
</glyph>
<glyph name="N.wide.shadow" format="2">
  <advance width="4602"/>
  <outline>
    <contour>
      <point x="1331" y="1056" type="line" identifier="MEnBDHq6zU"/>
      <point x="1203" y="1056" type="line" identifier="wfBbYd10Pm"/>
      <point x="1203" y="894" type="line"/>
      <point x="3091" y="-150" type="line"/>
      <point x="4430" y="-150" type="line"/>
      <point x="4580" y="0" type="line" identifier="uKfuudIUvA"/>
      <point x="3241" y="0" type="line" identifier="3Nbopwznvn"/>
    </contour>
    <contour>
      <point x="3635" y="546" type="line" identifier="VILP20cFmq"/>
      <point x="3635" y="1600" type="line" identifier="MUSJPjCIXg"/>
      <point x="3485" y="1450" type="line"/>
      <point x="3485" y="559" type="line"/>
      <point x="1600" y="1600" type="line" identifier="LL64NQ6WBE"/>
      <point x="3508" y="546" type="line" identifier="z5b04GDwRN"/>
    </contour>
    <contour>
      <point x="259" y="0" type="line" identifier="CkwYPPvJLv"/>
      <point x="259" y="1600" type="line" identifier="dzUaaP1sjt"/>
      <point x="109" y="1450" type="line"/>
      <point x="109" y="-150" type="line"/>
      <point x="1053" y="-150" type="line"/>
      <point x="1203" y="0" type="line" identifier="oHTJsN7drZ"/>
    </contour>
    <contour>
      <point x="1204.0" y="-1.0000000000000002" type="line"/>
      <point x="258.0" y="-0.9999999999999998" type="line"/>
      <point x="258.0" y="1601.0" type="line"/>
      <point x="1600.2578425450588" y="1601.0" type="line"/>
      <point x="3508.483538131824" y="546.8753232974576" type="line"/>
      <point x="3508.0" y="547.0" type="line"/>
      <point x="3635.0" y="547.0" type="line"/>
      <point x="3634.0" y="546.0" type="line"/>
      <point x="3634.0" y="1601.0" type="line"/>
      <point x="4581.0" y="1601.0" type="line"/>
      <point x="4581.0" y="-1.0000000000000002" type="line"/>
      <point x="3240.741965998095" y="-1.0" type="line"/>
      <point x="1330.51614763477" y="1055.1248503621314" type="line"/>
      <point x="1331.0" y="1055.0" type="line"/>
      <point x="1203.0" y="1055.0" type="line"/>
      <point x="1204.0" y="1056.0" type="line"/>
    </contour>
    <contour>
      <point x="259.0" y="1.0" type="line"/>
      <point x="1203.0" y="1.0" type="line"/>
      <point x="1202.0" y="1.2246467991473532e-16" type="line"/>
      <point x="1202.0" y="1057.0" type="line"/>
      <point x="1331.2580340019051" y="1057.0" type="line"/>
      <point x="3241.4838523652297" y="0.8751496378685226" type="line"/>
      <point x="3241.0" y="1.0" type="line"/>
      <point x="4580.0" y="1.0" type="line"/>
      <point x="4579.0" y="1.2246467991473532e-16" type="line"/>
      <point x="4579.0" y="1600.0" type="line"/>
      <point x="4580.0" y="1599.0" type="line"/>
      <point x="3635.0" y="1599.0" type="line"/>
      <point x="3636.0" y="1600.0" type="line"/>
      <point x="3636.0" y="545.0" type="line"/>
      <point x="3507.7421574549417" y="545.0" type="line"/>
      <point x="1599.5164618681758" y="1599.1246767025423" type="line"/>
      <point x="1600.0" y="1599.0" type="line"/>
      <point x="259.0" y="1599.0" type="line"/>
      <point x="260.0" y="1600.0" type="line"/>
      <point x="260.0" y="-2.4492935982947064e-16" type="line"/>
    </contour>
  </outline>
</glyph>
<glyph name="O.shadow" format="2">
  <advance width="5212"/>
  <outline>
    <contour>
      <point x="4283" y="733" type="line" identifier="SnrsQD5TLy"/>
      <point x="4283" y="1065" type="line" identifier="g70r2r6DwY"/>
      <point x="1271" y="1065" type="line" identifier="qXlVxK5ShE"/>
      <point x="1134" y="915" type="line"/>
      <point x="4133" y="915" type="line"/>
      <point x="4133" y="583" type="line"/>
      <point x="4096" y="544" type="line"/>
      <point x="4102" y="544" type="line" identifier="jjd5iRDXWT"/>
    </contour>
    <contour>
      <point x="1134" y="915" type="line"/>
      <point x="1099" y="876" type="line" identifier="vdfGLkskOQ"/>
      <point x="1134" y="915" type="line"/>
    </contour>
    <contour>
      <point x="3" y="918" type="line"/>
      <point x="3" y="-150" type="line"/>
      <point x="4595" y="-150" type="line"/>
      <point x="4745" y="0" type="line" identifier="dfgNHTgBfR"/>
      <point x="153" y="0" type="line" identifier="U6WibAQAUl"/>
      <point x="153" y="1068" type="line" identifier="kbL68Qh2zr"/>
      <point x="635" y="1600" type="line" identifier="a4Ql951bxG"/>
      <point x="485" y="1450" type="line"/>
    </contour>
    <contour>
      <point x="5229.0" y="1601.0" type="line"/>
      <point x="5229.0" y="533.6148421339092" type="line"/>
      <point x="4745.443878744049" y="-1.0" type="line"/>
      <point x="152.0" y="-0.9999999999999998" type="line"/>
      <point x="152.0" y="1068.3856378150692" type="line"/>
      <point x="634.5566213780763" y="1601.0" type="line"/>
    </contour>
    <contour>
      <point x="4282.277773222349" y="733.6916563320356" type="line"/>
      <point x="4282.0" y="733.0" type="line"/>
      <point x="4282.0" y="1065.0" type="line"/>
      <point x="4283.0" y="1064.0" type="line"/>
      <point x="1271.0" y="1064.0" type="line"/>
      <point x="1271.7395858394011" y="1064.326937754619" type="line"/>
      <point x="1099.7395858394011" y="875.326937754619" type="line"/>
      <point x="1100.0" y="876.0" type="line"/>
      <point x="1100.0" y="544.0" type="line"/>
      <point x="1099.0" y="545.0" type="line"/>
      <point x="4102.0" y="545.0" type="line"/>
      <point x="4101.277773222349" y="544.6916563320356" type="line"/>
    </contour>
    <contour>
      <point x="5227.0" y="534.0" type="line"/>
      <point x="5227.0" y="1600.0" type="line"/>
      <point x="5228.0" y="1599.0" type="line"/>
      <point x="635.0" y="1599.0" type="line"/>
      <point x="635.7410735873455" y="1599.3285761859013" type="line"/>
      <point x="153.74107358734548" y="1067.3285761859013" type="line"/>
      <point x="154.0" y="1068.0" type="line"/>
      <point x="154.0" y="-2.4492935982947064e-16" type="line"/>
      <point x="153.0" y="1.0" type="line"/>
      <point x="4745.0" y="1.0" type="line"/>
      <point x="4744.258365521631" y="0.6708042191986785" type="line"/>
      <point x="5227.258365521631" y="534.6708042191987" type="line"/>
    </contour>
    <contour>
      <point x="4102.426934693515" y="543.0" type="line"/>
      <point x="1098.0" y="543.0" type="line"/>
      <point x="1098.0" y="876.3869094758857" type="line"/>
      <point x="1270.557944815596" y="1066.0" type="line"/>
      <point x="4284.0" y="1066.0" type="line"/>
      <point x="4284.0" y="732.59839415981" type="line"/>
    </contour>
  </outline>
</glyph>
<glyph name="P.shadow" format="2">
  <advance width="4966"/>
  <outline>
    <contour>
      <point x="1138" y="205" type="line"/>
      <point x="4862" y="329" type="line"/>
      <point x="4912" y="379" type="line" identifier="Tt6D8zYZmU"/>
      <point x="1138" y="253" type="line" identifier="hIFVovVRwe"/>
    </contour>
    <contour>
      <point x="1138" y="792" type="line" identifier="PIBVN1PGv1"/>
      <point x="3967" y="858" type="line" identifier="1WCnzth1GX"/>
      <point x="3967" y="1064" type="line" identifier="2c4LCF1E1R"/>
      <point x="1138" y="1064" type="line" identifier="IZIZQr2gYJ"/>
      <point x="1138" y="1014" type="line"/>
      <point x="3917" y="1014" type="line"/>
      <point x="3917" y="857" type="line"/>
    </contour>
    <contour>
      <point x="192" y="0" type="line" identifier="EG08jqU5fb"/>
      <point x="192" y="1600" type="line" identifier="eETO5GBD5v"/>
      <point x="142" y="1550" type="line"/>
      <point x="142" y="-50" type="line"/>
      <point x="1088" y="-50" type="line"/>
      <point x="1138" y="0" type="line" identifier="osRzIFK2Cu"/>
    </contour>
  </outline>
</glyph>
<glyph name="P.wide.shadow" format="2">
  <advance width="4866"/>
  <outline>
    <contour>
      <point x="4912" y="347" type="line" identifier="Tt6D8zYZmU"/>
      <point x="1138" y="347" type="line" identifier="hIFVovVRwe"/>
      <point x="1138" y="197" type="line"/>
      <point x="4762" y="197" type="line"/>
    </contour>
    <contour>
      <point x="3817" y="891" type="line"/>
      <point x="3967" y="891" type="line" identifier="1WCnzth1GX"/>
      <point x="3967" y="1064" type="line" identifier="2c4LCF1E1R"/>
      <point x="1138" y="1064" type="line" identifier="IZIZQr2gYJ"/>
      <point x="1138" y="914" type="line"/>
      <point x="3817" y="914" type="line"/>
    </contour>
    <contour>
      <point x="192" y="0" type="line" identifier="EG08jqU5fb"/>
      <point x="192" y="1600" type="line" identifier="eETO5GBD5v"/>
      <point x="42" y="1450" type="line"/>
      <point x="42" y="-150" type="line"/>
      <point x="988" y="-150" type="line"/>
      <point x="1138" y="0" type="line" identifier="osRzIFK2Cu"/>
    </contour>
    <contour>
      <point x="1139.0" y="-1.0000000000000002" type="line"/>
      <point x="191.0" y="-0.9999999999999998" type="line"/>
      <point x="191.0" y="1601.0" type="line"/>
      <point x="4913.0" y="1601.0" type="line"/>
      <point x="4913.0" y="346.0" type="line"/>
      <point x="1138.0" y="346.0" type="line"/>
      <point x="1139.0" y="347.0" type="line"/>
    </contour>
    <contour>
      <point x="1139.0" y="891.0" type="line"/>
      <point x="1138.0" y="892.0" type="line"/>
      <point x="3967.0" y="892.0" type="line"/>
      <point x="3966.0" y="891.0" type="line"/>
      <point x="3966.0" y="1064.0" type="line"/>
      <point x="3967.0" y="1063.0" type="line"/>
      <point x="1138.0" y="1063.0" type="line"/>
      <point x="1139.0" y="1064.0" type="line"/>
    </contour>
    <contour>
      <point x="192.0" y="1.0" type="line"/>
      <point x="1138.0" y="1.0" type="line"/>
      <point x="1137.0" y="1.2246467991473532e-16" type="line"/>
      <point x="1137.0" y="348.0" type="line"/>
      <point x="4912.0" y="348.0" type="line"/>
      <point x="4911.0" y="347.0" type="line"/>
      <point x="4911.0" y="1600.0" type="line"/>
      <point x="4912.0" y="1599.0" type="line"/>
      <point x="192.0" y="1599.0" type="line"/>
      <point x="193.0" y="1600.0" type="line"/>
      <point x="193.0" y="-2.4492935982947064e-16" type="line"/>
    </contour>
    <contour>
      <point x="1137.0" y="1065.0" type="line"/>
      <point x="3968.0" y="1065.0" type="line"/>
      <point x="3968.0" y="890.0" type="line"/>
      <point x="1137.0" y="890.0" type="line"/>
    </contour>
  </outline>
</glyph>
<glyph name="Q.shadow" format="2">
  <advance width="5164"/>
  <outline>
    <contour>
      <point x="2257" y="-268" type="line"/>
      <point x="2257" y="2" type="line"/>
      <point x="153" y="2" type="line" identifier="U6WibAQAUl"/>
      <point x="153" y="1112" type="line" identifier="kbL68Qh2zr"/>
      <point x="635" y="1600" type="line" identifier="a4Ql951bxG"/>
      <point x="485" y="1450" type="line"/>
      <point x="3" y="962" type="line"/>
      <point x="3" y="-148" type="line"/>
      <point x="2107" y="-148" type="line"/>
      <point x="2107" y="-418" type="line"/>
      <point x="2953" y="-418" type="line"/>
      <point x="3103" y="-268" type="line"/>
    </contour>
    <contour>
      <point x="4197" y="538" type="line" identifier="jjd5iRDXWT"/>
      <point x="4197" y="1064" type="line" identifier="g70r2r6DwY"/>
      <point x="1348" y="1064" type="line" identifier="qXlVxK5ShE"/>
      <point x="1099" y="844" type="line" identifier="vdfGLkskOQ"/>
      <point x="1099" y="827" type="line"/>
      <point x="1198" y="914" type="line"/>
      <point x="4047" y="914" type="line"/>
      <point x="4047" y="538" type="line"/>
    </contour>
    <contour>
      <point x="3103" y="-148" type="line"/>
      <point x="4992" y="-148" type="line"/>
      <point x="5142" y="2" type="line" identifier="dfgNHTgBfR"/>
      <point x="3103" y="2" type="line"/>
    </contour>
    <contour>
      <point x="634.5821584032899" y="1601.0" type="line"/>
      <point x="5143.0" y="1601.0" type="line"/>
      <point x="5143.0" y="0.9999999999999999" type="line"/>
      <point x="152.0" y="1.0000000000000002" type="line"/>
      <point x="152.0" y="1112.4105948116069" type="line"/>
    </contour>
    <contour>
      <point x="4197.0" y="539.0" type="line"/>
      <point x="4196.0" y="538.0" type="line"/>
      <point x="4196.0" y="1064.0" type="line"/>
      <point x="4197.0" y="1063.0" type="line"/>
      <point x="1348.0" y="1063.0" type="line"/>
      <point x="1348.6621191932502" y="1063.2506014585485" type="line"/>
      <point x="1099.6621191932502" y="843.2506014585485" type="line"/>
      <point x="1100.0" y="844.0" type="line"/>
      <point x="1100.0" y="538.0" type="line"/>
      <point x="1099.0" y="539.0" type="line"/>
    </contour>
    <contour>
      <point x="3104.0" y="-269.0" type="line"/>
      <point x="2256.0" y="-269.0" type="line"/>
      <point x="2256.0" y="3.0000000000000004" type="line"/>
      <point x="2257.0" y="3.0" type="line"/>
      <point x="3104.0" y="3.0" type="line"/>
    </contour>
    <contour>
      <point x="5142.0" y="1599.0" type="line"/>
      <point x="635.0" y="1599.0" type="line"/>
      <point x="635.7114670268901" y="1599.2972805185225" type="line"/>
      <point x="153.71146702689015" y="1111.2972805185225" type="line"/>
      <point x="154.0" y="1112.0" type="line"/>
      <point x="154.0" y="1.9999999999999998" type="line"/>
      <point x="153.0" y="3.0" type="line"/>
      <point x="5142.0" y="3.0" type="line"/>
      <point x="5141.0" y="2.0" type="line"/>
      <point x="5141.0" y="1600.0" type="line"/>
    </contour>
    <contour>
      <point x="1098.0" y="537.0" type="line"/>
      <point x="1098.0" y="844.4508693146042" type="line"/>
      <point x="1347.6215160939253" y="1065.0" type="line"/>
      <point x="4198.0" y="1065.0" type="line"/>
      <point x="4198.0" y="537.0" type="line"/>
    </contour>
    <contour>
      <point x="2257.0" y="-267.0" type="line"/>
      <point x="3103.0" y="-267.0" type="line"/>
      <point x="3102.0" y="-268.0" type="line"/>
      <point x="3102.0" y="2.0" type="line"/>
      <point x="3103.0" y="1.0" type="line"/>
      <point x="2257.0" y="1.0" type="line"/>
      <point x="2258.0" y="1.9999999999999998" type="line"/>
      <point x="2258.0" y="-268.0" type="line"/>
    </contour>
  </outline>
</glyph>
<glyph name="R.alt.shadow" format="2">
  <advance width="5349"/>
  <outline>
    <contour>
      <point x="5251" y="1" type="line"/>
      <point x="4841" y="373" type="line"/>
      <point x="5187" y="375" type="line"/>
      <point x="5337" y="525" type="line"/>
      <point x="4677" y="522" type="line"/>
      <point x="4841" y="373" type="line"/>
      <point x="4841" y="373" type="line"/>
    </contour>
    <contour>
      <point x="1301" y="852" type="line"/>
      <point x="4393" y="852" type="line"/>
      <point x="4304" y="1002" type="line"/>
      <point x="1210" y="1002" type="line"/>
    </contour>
    <contour>
      <point x="5251" y="1" type="line"/>
      <point x="4309" y="1" type="line"/>
      <point x="3841" y="347" type="line"/>
      <point x="1300" y="347" type="line"/>
      <point x="1261" y="197" type="line"/>
      <point x="3691" y="197" type="line"/>
      <point x="4159" y="-149" type="line"/>
      <point x="5101" y="-149" type="line"/>
    </contour>
    <contour>
      <point x="1261" y="197" type="line"/>
      <point x="1211" y="1" type="line"/>
      <point x="1261" y="197" type="line"/>
    </contour>
    <contour>
      <point x="115" y="-149" type="line"/>
      <point x="1061" y="-149" type="line"/>
      <point x="1211" y="1" type="line"/>
      <point x="265" y="1" type="line"/>
      <point x="265" y="1601" type="line"/>
      <point x="115" y="1451" type="line"/>
    </contour>
    <contour>
      <point x="1301.8549680718136" y="852.5186806302336" type="line"/>
      <point x="1301.0" y="853.0" type="line"/>
      <point x="4393.0" y="853.0" type="line"/>
      <point x="4392.1399879903265" y="851.4897262075935" type="line"/>
      <point x="4303.1399879903265" y="1001.4897262075935" type="line"/>
      <point x="4304.0" y="1001.0" type="line"/>
      <point x="1210.0" y="1001.0" type="line"/>
      <point x="1210.8549680718136" y="1002.5186806302336" type="line"/>
    </contour>
    <contour>
      <point x="4677.672094711501" y="522.7404651907902" type="line"/>
      <point x="5253.58961298312" y="-3.171361250808595e-16" type="line"/>
      <point x="4308.670480504214" y="2.7755575615628914e-17" type="line"/>
      <point x="3840.40551232226" y="346.19589527982015" type="line"/>
      <point x="3841.0" y="346.0" type="line"/>
      <point x="1300.0" y="346.0" type="line"/>
      <point x="1300.968473640633" y="346.75088394792965" type="line"/>
      <point x="1211.775327191599" y="-9.495019634836682e-17" type="line"/>
      <point x="264.0" y="2.220446049250313e-16" type="line"/>
      <point x="264.0" y="1602.0" type="line"/>
      <point x="5248.92070119701" y="1602.0" type="line"/>
      <point x="5338.08572136037" y="524.0049247665675" type="line"/>
      <point x="4677.004545407589" y="521.0000103304185" type="line"/>
    </contour>
    <contour>
      <point x="1208.2236990125114" y="1003.0" type="line"/>
      <point x="4304.569441126501" y="1003.0" type="line"/>
      <point x="4394.756107793168" y="851.0" type="line"/>
      <point x="1300.4370323458447" y="851.0" type="line"/>
    </contour>
    <contour>
      <point x="5250.327905288499" y="0.2595348092097487" type="line"/>
      <point x="4674.423279470598" y="522.9882979644824" type="line"/>
      <point x="5336.995454592411" y="525.9999896695815" type="line"/>
      <point x="5336.0034033294505" y="524.9175677475104" type="line"/>
      <point x="5247.0034033294505" y="1600.9175677475102" type="line"/>
      <point x="5248.0" y="1600.0" type="line"/>
      <point x="265.0" y="1600.0" type="line"/>
      <point x="266.0" y="1601.0" type="line"/>
      <point x="266.0" y="0.9999999999999998" type="line"/>
      <point x="265.0" y="2.0" type="line"/>
      <point x="1211.0" y="2.0" type="line"/>
      <point x="1210.031526359367" y="1.2491160520703322" type="line"/>
      <point x="1299.224672808401" y="348.0" type="line"/>
      <point x="3841.3295194957864" y="348.0" type="line"/>
      <point x="4309.594487677739" y="1.8041047201798581" type="line"/>
      <point x="4309.0" y="2.0" type="line"/>
      <point x="5251.0" y="2.0" type="line"/>
    </contour>
  </outline>
</glyph>
<glyph name="R.shadow" format="2">
  <advance width="5263"/>
  <outline>
    <contour>
      <point x="5179" y="0" type="line"/>
      <point x="4821" y="510" type="line"/>
      <point x="5126" y="754" type="line"/>
      <point x="5176" y="804" type="line"/>
      <point x="4817" y="516" type="line"/>
      <point x="4821" y="510" type="line"/>
      <point x="4821" y="510" type="line"/>
    </contour>
    <contour>
      <point x="4230" y="909" type="line"/>
      <point x="4230" y="1064" type="line"/>
      <point x="1137" y="1064" type="line"/>
      <point x="1137" y="1014" type="line"/>
      <point x="4180" y="1014" type="line"/>
      <point x="4180" y="881" type="line"/>
      <point x="4122" y="849" type="line"/>
      <point x="4180" y="881" type="line"/>
      <point x="4180" y="881" type="line"/>
    </contour>
    <contour>
      <point x="5179" y="0" type="line"/>
      <point x="4235" y="0" type="line"/>
      <point x="4013" y="312" type="line"/>
      <point x="1138" y="312" type="line"/>
      <point x="1138" y="262" type="line"/>
      <point x="3963" y="262" type="line"/>
      <point x="4185" y="-50" type="line"/>
      <point x="5129" y="-50" type="line"/>
    </contour>
    <contour>
      <point x="1139" y="849" type="line"/>
      <point x="1137" y="1014" type="line"/>
      <point x="1137" y="1014" type="line"/>
    </contour>
    <contour>
      <point x="142" y="-50" type="line"/>
      <point x="1088" y="-50" type="line"/>
      <point x="1138" y="0" type="line"/>
      <point x="192" y="0" type="line"/>
      <point x="192" y="1600" type="line"/>
      <point x="142" y="1550" type="line"/>
    </contour>
  </outline>
</glyph>
<glyph name="S.alt.shadow" format="2">
  <advance width="4965"/>
  <outline>
    <contour>
      <point x="87" y="0" type="line" identifier="09VlJ0BjUX"/>
      <point x="87" y="501" type="line" identifier="ho4DrS0rdW"/>
      <point x="1032" y="501" type="line" identifier="jYb9001DTm"/>
      <point x="1032" y="531" type="line" identifier="yZDWuX8LLe"/>
      <point x="4104" y="531" type="line" identifier="9kdl9SYsn8"/>
      <point x="4104" y="609" type="line" identifier="yiV6OCBLHg"/>
      <point x="85" y="609" type="line" identifier="3sQ8t8BZ6b"/>
      <point x="85" y="1104" type="line"/>
      <point x="-65" y="954" type="line"/>
      <point x="-65" y="459" type="line"/>
      <point x="45" y="459" type="line"/>
      <point x="-63" y="351" type="line"/>
      <point x="-63" y="-150" type="line"/>
      <point x="4899" y="-150" type="line"/>
      <point x="5049" y="0" type="line" identifier="EagWihqFM8"/>
    </contour>
    <contour>
      <point x="4104" y="1069" type="line" identifier="3ZUkG35meB"/>
      <point x="1197" y="1069" type="line"/>
      <point x="1026" y="1101" type="line"/>
      <point x="1026" y="991" type="line" identifier="At364YZFEy"/>
      <point x="4982" y="991" type="line"/>
      <point x="5049" y="1058" type="line" identifier="9KDcrfQ5Ui"/>
      <point x="4104" y="1058" type="line" identifier="DTOJhFIl15"/>
    </contour>
    <contour>
      <point x="5050.0" y="-1.0000000000000002" type="line"/>
      <point x="86.0" y="-0.9999999999999998" type="line"/>
      <point x="86.0" y="502.0" type="line"/>
      <point x="1032.0" y="502.0" type="line"/>
      <point x="1031.0" y="501.0" type="line"/>
      <point x="1031.0" y="532.0" type="line"/>
      <point x="4104.0" y="532.0" type="line"/>
      <point x="4103.0" y="531.0" type="line"/>
      <point x="4103.0" y="609.0" type="line"/>
      <point x="4104.0" y="608.0" type="line"/>
      <point x="84.0" y="608.0" type="line"/>
      <point x="84.0" y="1104.4548958589135" type="line"/>
      <point x="653.6253311618512" y="1601.0" type="line"/>
      <point x="5050.0" y="1601.0" type="line"/>
      <point x="5050.0" y="1057.0" type="line"/>
      <point x="4103.0" y="1057.0" type="line"/>
      <point x="4103.0" y="1069.0" type="line"/>
      <point x="4104.0" y="1068.0" type="line"/>
      <point x="1196.907237877094" y="1068.0" type="line"/>
      <point x="1025.8160585358053" y="1100.017062800709" type="line"/>
      <point x="1027.0" y="1101.0" type="line"/>
      <point x="1027.0" y="991.0" type="line"/>
      <point x="1026.0" y="992.0" type="line"/>
      <point x="5050.0" y="992.0" type="line"/>
    </contour>
    <contour>
      <point x="87.0" y="1.0" type="line"/>
      <point x="5049.0" y="1.0" type="line"/>
      <point x="5048.0" y="1.2246467991473532e-16" type="line"/>
      <point x="5048.0" y="991.0" type="line"/>
      <point x="5049.0" y="990.0" type="line"/>
      <point x="1025.0" y="990.0" type="line"/>
      <point x="1025.0" y="1102.204493496684" type="line"/>
      <point x="1197.1839414641947" y="1069.982937199291" type="line"/>
      <point x="1197.0" y="1070.0" type="line"/>
      <point x="4105.0" y="1070.0" type="line"/>
      <point x="4105.0" y="1058.0" type="line"/>
      <point x="4104.0" y="1059.0" type="line"/>
      <point x="5049.0" y="1059.0" type="line"/>
      <point x="5048.0" y="1058.0" type="line"/>
      <point x="5048.0" y="1600.0" type="line"/>
      <point x="5049.0" y="1599.0" type="line"/>
      <point x="654.0" y="1599.0" type="line"/>
      <point x="654.6570965989957" y="1599.2461936192972" type="line"/>
      <point x="85.65709659899575" y="1103.2461936192972" type="line"/>
      <point x="86.0" y="1104.0" type="line"/>
      <point x="86.0" y="609.0" type="line"/>
      <point x="85.0" y="610.0" type="line"/>
      <point x="4105.0" y="610.0" type="line"/>
      <point x="4105.0" y="530.0" type="line"/>
      <point x="1032.0" y="530.0" type="line"/>
      <point x="1033.0" y="531.0" type="line"/>
      <point x="1033.0" y="500.0" type="line"/>
      <point x="87.0" y="500.0" type="line"/>
      <point x="88.0" y="501.0" type="line"/>
      <point x="88.0" y="-2.4492935982947064e-16" type="line"/>
    </contour>
  </outline>
</glyph>
<glyph name="S.shadow" format="2">
  <advance width="4879"/>
  <outline>
    <contour>
      <point x="124" y="0" type="line" identifier="09VlJ0BjUX"/>
      <point x="124" y="501" type="line" identifier="ho4DrS0rdW"/>
      <point x="1070" y="501" type="line" identifier="jYb9001DTm"/>
      <point x="1070" y="496" type="line" identifier="yZDWuX8LLe"/>
      <point x="3979" y="496" type="line" identifier="9kdl9SYsn8"/>
      <point x="3979" y="551" type="line" identifier="yiV6OCBLHg"/>
      <point x="130" y="551" type="line" identifier="3sQ8t8BZ6b"/>
      <point x="130" y="1244" type="line"/>
      <point x="-20" y="1094" type="line"/>
      <point x="-20" y="401" type="line"/>
      <point x="24" y="401" type="line"/>
      <point x="-26" y="351" type="line"/>
      <point x="-26" y="-150" type="line"/>
      <point x="4775" y="-150" type="line"/>
      <point x="4925" y="0" type="line" identifier="EagWihqFM8"/>
    </contour>
    <contour>
      <point x="3979" y="1104" type="line" identifier="3ZUkG35meB"/>
      <point x="1075" y="1104" type="line"/>
      <point x="1075" y="1241" type="line"/>
      <point x="1062" y="1104" type="line"/>
      <point x="1075" y="1104" type="line"/>
      <point x="1075" y="1047" type="line" identifier="At364YZFEy"/>
      <point x="4896" y="1047" type="line"/>
      <point x="4925" y="1076" type="line" identifier="9KDcrfQ5Ui"/>
      <point x="3979" y="1076" type="line" identifier="DTOJhFIl15"/>
    </contour>
    <contour>
      <point x="4926.0" y="-1.0000000000000002" type="line"/>
      <point x="123.0" y="-0.9999999999999998" type="line"/>
      <point x="123.0" y="502.0" type="line"/>
      <point x="1071.0" y="502.0" type="line"/>
      <point x="1071.0" y="496.0" type="line"/>
      <point x="1070.0" y="497.0" type="line"/>
      <point x="3979.0" y="497.0" type="line"/>
      <point x="3978.0" y="496.0" type="line"/>
      <point x="3978.0" y="551.0" type="line"/>
      <point x="3979.0" y="550.0" type="line"/>
      <point x="129.0" y="550.0" type="line"/>
      <point x="129.0" y="1244.4479468004522" type="line"/>
      <point x="528.6187337826392" y="1601.0" type="line"/>
      <point x="4926.0" y="1601.0" type="line"/>
      <point x="4926.0" y="1075.0" type="line"/>
      <point x="3978.0" y="1075.0" type="line"/>
      <point x="3978.0" y="1104.0" type="line"/>
      <point x="3979.0" y="1103.0" type="line"/>
      <point x="1060.9006174736185" y="1103.0" type="line"/>
      <point x="1074.9491336021333" y="1251.0497468928113" type="line"/>
      <point x="1076.0" y="1251.0" type="line"/>
      <point x="1076.0" y="1047.0" type="line"/>
      <point x="1075.0" y="1048.0" type="line"/>
      <point x="4926.0" y="1048.0" type="line"/>
    </contour>
    <contour>
      <point x="124.0" y="1.0" type="line"/>
      <point x="4925.0" y="1.0" type="line"/>
      <point x="4924.0" y="1.2246467991473532e-16" type="line"/>
      <point x="4924.0" y="1047.0" type="line"/>
      <point x="4925.0" y="1046.0" type="line"/>
      <point x="1074.0" y="1046.0" type="line"/>
      <point x="1074.0" y="1241.0" type="line"/>
      <point x="1075.9955280725344" y="1240.9055338325331" type="line"/>
      <point x="1062.9955280725344" y="1103.9055338325331" type="line"/>
      <point x="1062.0" y="1105.0" type="line"/>
      <point x="3980.0" y="1105.0" type="line"/>
      <point x="3980.0" y="1076.0" type="line"/>
      <point x="3979.0" y="1077.0" type="line"/>
      <point x="4925.0" y="1077.0" type="line"/>
      <point x="4924.0" y="1076.0" type="line"/>
      <point x="4924.0" y="1600.0" type="line"/>
      <point x="4925.0" y="1599.0" type="line"/>
      <point x="529.0" y="1599.0" type="line"/>
      <point x="529.6657555871518" y="1599.2538301144" type="line"/>
      <point x="130.66575558715178" y="1243.2538301144" type="line"/>
      <point x="131.0" y="1244.0" type="line"/>
      <point x="131.0" y="551.0" type="line"/>
      <point x="130.0" y="552.0" type="line"/>
      <point x="3980.0" y="552.0" type="line"/>
      <point x="3980.0" y="495.0" type="line"/>
      <point x="1069.0" y="495.0" type="line"/>
      <point x="1069.0" y="501.0" type="line"/>
      <point x="1070.0" y="500.0" type="line"/>
      <point x="124.0" y="500.0" type="line"/>
      <point x="125.0" y="501.0" type="line"/>
      <point x="125.0" y="-2.4492935982947064e-16" type="line"/>
    </contour>
  </outline>
</glyph>
<glyph name="S.wide.shadow" format="2">
  <advance width="4613"/>
  <outline>
    <contour>
      <point x="1069" y="1068" type="line"/>
      <point x="1069" y="1043" type="line"/>
      <point x="1092" y="1054" type="line"/>
      <point x="4509" y="1054" type="line"/>
      <point x="4559" y="1104" type="line" identifier="3ZUkG35meB"/>
      <point x="1142" y="1104" type="line"/>
    </contour>
    <contour>
      <point x="124" y="0" type="line" identifier="09VlJ0BjUX"/>
      <point x="124" y="496" type="line" identifier="yZDWuX8LLe"/>
      <point x="74" y="446" type="line"/>
      <point x="74" y="-50" type="line"/>
      <point x="4509" y="-50" type="line"/>
      <point x="4559" y="0" type="line" identifier="EagWihqFM8"/>
    </contour>
    <contour>
      <point x="80" y="1021" type="line"/>
      <point x="80" y="531" type="line"/>
      <point x="3563" y="531" type="line"/>
      <point x="3563" y="496" type="line"/>
      <point x="3613" y="496" type="line" identifier="9kdl9SYsn8"/>
      <point x="3613" y="581" type="line" identifier="yiV6OCBLHg"/>
      <point x="130" y="581" type="line" identifier="3sQ8t8BZ6b"/>
      <point x="130" y="1071" type="line"/>
      <point x="614" y="1600" type="line"/>
      <point x="564" y="1550" type="line"/>
    </contour>
  </outline>
</glyph>
<glyph name="T.shadow" format="2">
  <advance width="4581"/>
  <outline>
    <contour>
      <point x="4627" y="1064" type="line"/>
      <point x="2849" y="1064" type="line" identifier="zTICSjBOe7"/>
      <point x="2849" y="914" type="line"/>
      <point x="4477" y="914" type="line"/>
    </contour>
    <contour>
      <point x="1903" y="0" type="line"/>
      <point x="1903" y="1064" type="line" identifier="1xm0mHc9eh"/>
      <point x="124" y="1064" type="line"/>
      <point x="124" y="1600" type="line" identifier="8oS81nStJX"/>
      <point x="-26" y="1450" type="line"/>
      <point x="-26" y="914" type="line"/>
      <point x="1753" y="914" type="line"/>
      <point x="1753" y="-150" type="line"/>
      <point x="2699" y="-150" type="line"/>
      <point x="2849" y="0" type="line"/>
    </contour>
    <contour>
      <point x="2850.0" y="-1.0000000000000002" type="line"/>
      <point x="1902.0" y="-0.9999999999999998" type="line"/>
      <point x="1902.0" y="1064.0" type="line"/>
      <point x="1903.0" y="1063.0" type="line"/>
      <point x="123.0" y="1063.0" type="line"/>
      <point x="123.0" y="1601.0" type="line"/>
      <point x="4628.0" y="1601.0" type="line"/>
      <point x="4628.0" y="1063.0" type="line"/>
      <point x="2849.0" y="1063.0" type="line"/>
      <point x="2850.0" y="1064.0" type="line"/>
    </contour>
    <contour>
      <point x="1903.0" y="1.0" type="line"/>
      <point x="2849.0" y="1.0" type="line"/>
      <point x="2848.0" y="1.2246467991473532e-16" type="line"/>
      <point x="2848.0" y="1065.0" type="line"/>
      <point x="4627.0" y="1065.0" type="line"/>
      <point x="4626.0" y="1064.0" type="line"/>
      <point x="4626.0" y="1600.0" type="line"/>
      <point x="4627.0" y="1599.0" type="line"/>
      <point x="124.0" y="1599.0" type="line"/>
      <point x="125.0" y="1600.0" type="line"/>
      <point x="125.0" y="1064.0" type="line"/>
      <point x="124.0" y="1065.0" type="line"/>
      <point x="1904.0" y="1065.0" type="line"/>
      <point x="1904.0" y="-2.4492935982947064e-16" type="line"/>
    </contour>
  </outline>
</glyph>
<glyph name="U.shadow" format="2">
  <advance width="5034"/>
  <outline>
    <contour>
      <point x="153" y="498" type="line" smooth="yes"/>
      <point x="153" y="1600" type="line" smooth="yes"/>
      <point x="103" y="1550" type="line"/>
      <point x="103" y="448" type="line"/>
      <point x="598" y="-50" type="line"/>
      <point x="4862" y="-50" type="line"/>
      <point x="4912" y="0" type="line" smooth="yes"/>
      <point x="648" y="0" type="line" smooth="yes"/>
    </contour>
    <contour>
      <point x="3966" y="1600" type="line" smooth="yes"/>
      <point x="3916" y="1550" type="line"/>
      <point x="3916" y="536" type="line"/>
      <point x="3966" y="536" type="line"/>
    </contour>
  </outline>
</glyph>
<glyph name="W.shadow" format="2">
  <advance width="7053"/>
  <outline>
    <contour>
      <point x="5973" y="648" type="line"/>
      <point x="5855" y="536" type="line" smooth="yes" identifier="oee4nqI8Wl"/>
      <point x="6123" y="790" type="line" smooth="yes" identifier="WWvGwSpq0g"/>
      <point x="6123" y="1600" type="line" identifier="JfSFAkWGZC"/>
      <point x="5973" y="1450" type="line"/>
    </contour>
    <contour>
      <point x="3024" y="1384" type="line"/>
      <point x="3024" y="739" type="line"/>
      <point x="2767" y="536" type="line" identifier="GlWB6PG54Z"/>
      <point x="3174" y="857" type="line"/>
      <point x="3174" y="1534" type="line"/>
      <point x="3175" y="1580" type="line"/>
      <point x="3025" y="1430" type="line"/>
    </contour>
    <contour>
      <point x="42" y="-150" type="line"/>
      <point x="2887" y="-150" type="line"/>
      <point x="3243" y="103" type="line"/>
      <point x="3257" y="103" type="line"/>
      <point x="3257" y="-150" type="line"/>
      <point x="6426" y="-150" type="line"/>
      <point x="6576" y="0" type="line" smooth="yes" identifier="R4lklfJsHA"/>
      <point x="3407" y="0" type="line" smooth="yes" identifier="Pkl7cZ37MU"/>
      <point x="3407" y="253" type="line"/>
      <point x="3393" y="253" type="line"/>
      <point x="3037" y="0" type="line" smooth="yes" identifier="rCeQLyjlsN"/>
      <point x="192" y="0" type="line" smooth="yes" identifier="ZqTZqAY3uY"/>
      <point x="192" y="1600" type="line" smooth="yes" identifier="5LJg4ajoG6"/>
      <point x="42" y="1450" type="line"/>
    </contour>
    <contour>
      <point x="191.0" y="1601.0" type="line"/>
      <point x="1140.0" y="1601.0" type="line"/>
      <point x="1140.0" y="536.0" type="line"/>
      <point x="1139.0" y="537.0" type="line"/>
      <point x="2767.0" y="537.0" type="line"/>
      <point x="2766.3807310847815" y="536.7851789672707" type="line"/>
      <point x="3173.3807310847815" y="857.7851789672707" type="line"/>
      <point x="3173.0" y="857.0" type="line"/>
      <point x="3173.000236211176" y="1534.0217339954092" type="line"/>
      <point x="3174.0215028634498" y="1581.0" type="line"/>
      <point x="4120.0" y="1581.0" type="line"/>
      <point x="4120.0" y="536.0" type="line"/>
      <point x="4119.0" y="537.0" type="line"/>
      <point x="5855.0" y="537.0" type="line"/>
      <point x="5854.312105128269" y="536.7258103371028" type="line"/>
      <point x="6122.312105128269" y="790.7258103371028" type="line"/>
      <point x="6122.0" y="790.0" type="line"/>
      <point x="6122.0" y="1601.0" type="line"/>
      <point x="7070.0" y="1601.0" type="line"/>
      <point x="7070.0" y="505.5933884742258" type="line"/>
      <point x="6576.421856684203" y="-1.0" type="line"/>
      <point x="3406.0" y="-0.9999999999999998" type="line"/>
      <point x="3406.0" y="253.0" type="line"/>
      <point x="3407.0" y="252.0" type="line"/>
      <point x="3393.0" y="252.0" type="line"/>
      <point x="3393.5792872099883" y="252.1848764950364" type="line"/>
      <point x="3037.319144790095" y="-1.0" type="line"/>
      <point x="191.0" y="-0.9999999999999998" type="line"/>
    </contour>
    <contour>
      <point x="1139.0" y="1599.0" type="line"/>
      <point x="192.0" y="1599.0" type="line"/>
      <point x="193.0" y="1600.0" type="line"/>
      <point x="193.0" y="-2.4492935982947064e-16" type="line"/>
      <point x="192.0" y="1.0" type="line"/>
      <point x="3037.0" y="1.0" type="line"/>
      <point x="3036.4207127900117" y="0.8151235049635881" type="line"/>
      <point x="3392.680855209905" y="254.0" type="line"/>
      <point x="3408.0" y="254.0" type="line"/>
      <point x="3408.0" y="-2.4492935982947064e-16" type="line"/>
      <point x="3407.0" y="1.0" type="line"/>
      <point x="6576.0" y="1.0" type="line"/>
      <point x="6575.283752270662" y="0.6978461078333098" type="line"/>
      <point x="7068.283752270662" y="506.6978461078333" type="line"/>
      <point x="7068.0" y="506.0" type="line"/>
      <point x="7068.0" y="1600.0" type="line"/>
      <point x="7069.0" y="1599.0" type="line"/>
      <point x="6123.0" y="1599.0" type="line"/>
      <point x="6124.0" y="1600.0" type="line"/>
      <point x="6124.0" y="789.569990791928" type="line"/>
      <point x="5855.3985923927685" y="535.0" type="line"/>
      <point x="4118.0" y="535.0" type="line"/>
      <point x="4118.0" y="1580.0" type="line"/>
      <point x="4119.0" y="1579.0" type="line"/>
      <point x="3175.0" y="1579.0" type="line"/>
      <point x="3175.999763788824" y="1579.9782660045908" type="line"/>
      <point x="3174.999763788824" y="1533.9782660045908" type="line"/>
      <point x="3175.0" y="856.515102797385" type="line"/>
      <point x="2767.346894584001" y="535.0" type="line"/>
      <point x="1138.0" y="535.0" type="line"/>
      <point x="1138.0" y="1600.0" type="line"/>
    </contour>
  </outline>
</glyph>
<glyph name="X.shadow" format="2">
  <advance width="5124"/>
  <outline>
    <contour>
      <point x="4987" y="930" type="line"/>
      <point x="5037" y="980" type="line"/>
      <point x="4580" y="774" type="line"/>
      <point x="4580" y="772" type="line"/>
      <point x="4607" y="758" type="line"/>
      <point x="4606" y="758" type="line"/>
      <point x="5040" y="533" type="line"/>
      <point x="4607" y="758" type="line"/>
    </contour>
    <contour>
      <point x="3727" y="511" type="line"/>
      <point x="1468" y="511" type="line"/>
      <point x="1099" y="280" type="line"/>
      <point x="1099" y="261" type="line"/>
      <point x="1418" y="461" type="line"/>
      <point x="3677" y="461" type="line"/>
      <point x="4045" y="230" type="line"/>
      <point x="4045" y="-50" type="line"/>
      <point x="4990" y="-50" type="line"/>
      <point x="5040" y="0" type="line"/>
      <point x="4095" y="0" type="line"/>
      <point x="4095" y="280" type="line"/>
    </contour>
    <contour>
      <point x="3818" y="1047" type="line"/>
      <point x="4042" y="1166" type="line"/>
      <point x="4042" y="1166" type="line"/>
      <point x="4092" y="1193" type="line"/>
      <point x="4092" y="1600" type="line"/>
      <point x="4042" y="1550" type="line"/>
      <point x="4042" y="1166" type="line"/>
    </contour>
    <contour>
      <point x="106" y="930" type="line"/>
      <point x="543" y="734" type="line"/>
      <point x="153" y="533" type="line"/>
      <point x="103" y="483" type="line"/>
      <point x="103" y="-50" type="line"/>
      <point x="1049" y="-50" type="line"/>
      <point x="1099" y="0" type="line"/>
      <point x="153" y="0" type="line"/>
      <point x="153" y="533" type="line"/>
      <point x="543" y="734" type="line"/>
      <point x="543" y="734" type="line"/>
      <point x="616" y="772" type="line"/>
      <point x="616" y="774" type="line"/>
      <point x="156" y="980" type="line"/>
      <point x="156" y="1600" type="line"/>
      <point x="106" y="1550" type="line"/>
    </contour>
  </outline>
</glyph>
<glyph name="Y.alt.shadow" format="2">
  <advance width="4804"/>
  <outline>
    <contour>
      <point x="127" y="0" type="line"/>
      <point x="127" y="649" type="line"/>
      <point x="124" y="649" type="line" identifier="uqAJBjDIOT"/>
      <point x="124" y="1600" type="line" identifier="ZnCDQVdtyD"/>
      <point x="-26" y="1450" type="line"/>
      <point x="-26" y="499" type="line"/>
      <point x="-23" y="499" type="line"/>
      <point x="-23" y="-150" type="line"/>
      <point x="4632" y="-150" type="line"/>
      <point x="4782" y="0" type="line" identifier="oOtn61SmRY"/>
    </contour>
    <contour>
      <point x="3686" y="496" type="line"/>
      <point x="3836" y="496" type="line"/>
      <point x="3836" y="649" type="line" identifier="7JgTtdb0jg"/>
      <point x="1073" y="649" type="line"/>
      <point x="1073" y="667" type="line"/>
      <point x="127" y="667" type="line"/>
      <point x="127" y="649" type="line"/>
      <point x="1073" y="649" type="line"/>
      <point x="1073" y="499" type="line"/>
      <point x="3686" y="499" type="line"/>
    </contour>
    <contour>
      <point x="3686" y="1145" type="line"/>
      <point x="3836" y="1145" type="line" identifier="MTAeavIVWY"/>
      <point x="3836" y="1600" type="line" identifier="db0bPhBdaU"/>
      <point x="3686" y="1450" type="line"/>
    </contour>
    <contour>
      <point x="4783.0" y="-1.0000000000000002" type="line"/>
      <point x="126.0" y="-0.9999999999999998" type="line"/>
      <point x="126.0" y="668.0" type="line"/>
      <point x="1074.0" y="668.0" type="line"/>
      <point x="1074.0" y="496.0" type="line"/>
      <point x="1073.0" y="497.0" type="line"/>
      <point x="3836.0" y="497.0" type="line"/>
      <point x="3835.0" y="496.0" type="line"/>
      <point x="3835.0" y="649.0" type="line"/>
      <point x="3836.0" y="648.0" type="line"/>
      <point x="123.0" y="648.0" type="line"/>
      <point x="123.0" y="1601.0" type="line"/>
      <point x="1070.0" y="1601.0" type="line"/>
      <point x="1070.0" y="1145.0" type="line"/>
      <point x="1069.0" y="1146.0" type="line"/>
      <point x="3836.0" y="1146.0" type="line"/>
      <point x="3835.0" y="1145.0" type="line"/>
      <point x="3835.0" y="1601.0" type="line"/>
      <point x="4783.0" y="1601.0" type="line"/>
    </contour>
    <contour>
      <point x="127.0" y="1.0" type="line"/>
      <point x="4782.0" y="1.0" type="line"/>
      <point x="4781.0" y="1.2246467991473532e-16" type="line"/>
      <point x="4781.0" y="1600.0" type="line"/>
      <point x="4782.0" y="1599.0" type="line"/>
      <point x="3836.0" y="1599.0" type="line"/>
      <point x="3837.0" y="1600.0" type="line"/>
      <point x="3837.0" y="1144.0" type="line"/>
      <point x="1068.0" y="1144.0" type="line"/>
      <point x="1068.0" y="1600.0" type="line"/>
      <point x="1069.0" y="1599.0" type="line"/>
      <point x="124.0" y="1599.0" type="line"/>
      <point x="125.0" y="1600.0" type="line"/>
      <point x="125.0" y="649.0" type="line"/>
      <point x="124.0" y="650.0" type="line"/>
      <point x="3837.0" y="650.0" type="line"/>
      <point x="3837.0" y="495.0" type="line"/>
      <point x="1072.0" y="495.0" type="line"/>
      <point x="1072.0" y="667.0" type="line"/>
      <point x="1073.0" y="666.0" type="line"/>
      <point x="127.0" y="666.0" type="line"/>
      <point x="128.0" y="667.0" type="line"/>
      <point x="128.0" y="-2.4492935982947064e-16" type="line"/>
    </contour>
  </outline>
</glyph>
<glyph name="Y.shadow" format="2">
  <advance width="5232"/>
  <outline>
    <contour>
      <point x="3124" y="509" type="line"/>
      <point x="5128" y="688" type="line"/>
      <point x="5178" y="738" type="line" identifier="YbKEFhFR3q"/>
      <point x="3124" y="555" type="line" identifier="rvzWMWl6O1"/>
    </contour>
    <contour>
      <point x="4182" y="1196" type="line"/>
      <point x="2801" y="1083" type="line" identifier="9ncbEH2hEb"/>
      <point x="4232" y="1200" type="line" identifier="Jw55i2s2Mm"/>
      <point x="4232" y="1573" type="line" identifier="spI4xe8t4f"/>
      <point x="4182" y="1523" type="line"/>
    </contour>
    <contour>
      <point x="2179" y="2" type="line" identifier="XKjckKJ7m9"/>
      <point x="2179" y="555" type="line" identifier="3Kveia3O9h"/>
      <point x="124" y="738" type="line" identifier="k3vH9oxqcN"/>
      <point x="124" y="1573" type="line" identifier="fJXhpKV79E"/>
      <point x="74" y="1523" type="line"/>
      <point x="74" y="688" type="line"/>
      <point x="2129" y="505" type="line"/>
      <point x="2129" y="-48" type="line"/>
      <point x="3074" y="-50" type="line"/>
      <point x="3124" y="0" type="line" identifier="WihjL321cU"/>
    </contour>
  </outline>
</glyph>
<glyph name="Y.wide.shadow" format="2">
  <advance width="5000"/>
  <outline>
    <contour>
      <point x="155" y="0" type="line"/>
      <point x="155" y="496" type="line"/>
      <point x="105" y="446" type="line"/>
      <point x="105" y="-50" type="line"/>
      <point x="4680" y="-50" type="line"/>
      <point x="4730" y="0" type="line" identifier="oOtn61SmRY"/>
    </contour>
    <contour>
      <point x="3734" y="1099" type="line"/>
      <point x="3784" y="1099" type="line" identifier="MTAeavIVWY"/>
      <point x="3784" y="1600" type="line" identifier="db0bPhBdaU"/>
      <point x="3734" y="1550" type="line"/>
    </contour>
    <contour>
      <point x="102" y="553" type="line"/>
      <point x="3734" y="553" type="line"/>
      <point x="3734" y="496" type="line"/>
      <point x="3784" y="496" type="line"/>
      <point x="3784" y="603" type="line" identifier="7JgTtdb0jg"/>
      <point x="152" y="603" type="line" identifier="uqAJBjDIOT"/>
      <point x="152" y="1600" type="line" identifier="ZnCDQVdtyD"/>
      <point x="102" y="1550" type="line"/>
    </contour>
  </outline>
</glyph>
<glyph name="Z.shadow" format="2">
  <advance width="4887"/>
  <outline>
    <contour>
      <point x="3835" y="628" type="line"/>
      <point x="3835" y="496" type="line"/>
      <point x="3885" y="496" type="line"/>
      <point x="3885" y="678" type="line"/>
      <point x="3996" y="678" type="line"/>
      <point x="4759" y="738" type="line"/>
      <point x="4809" y="788" type="line" identifier="yyb1NCCI5w"/>
      <point x="1094" y="496" type="line"/>
      <point x="1069" y="496" type="line"/>
      <point x="1069" y="494" type="line"/>
      <point x="1094" y="496" type="line"/>
      <point x="1680" y="496" type="line"/>
      <point x="3876" y="669" type="line"/>
    </contour>
    <contour>
      <point x="124" y="0" type="line"/>
      <point x="125" y="887" type="line" identifier="teVKnpBcVb"/>
      <point x="3187" y="1104" type="line"/>
      <point x="3863" y="1104" type="line"/>
      <point x="3864" y="1152" type="line"/>
      <point x="3187" y="1104" type="line"/>
      <point x="1087" y="1104" type="line"/>
      <point x="1087" y="1054" type="line"/>
      <point x="2481" y="1054" type="line"/>
      <point x="125" y="887" type="line"/>
      <point x="75" y="837" type="line"/>
      <point x="74" y="-50" type="line"/>
      <point x="4781" y="-50" type="line"/>
      <point x="4831" y="0" type="line" identifier="pzdvPTirLJ"/>
    </contour>
    <contour>
      <point x="95" y="952" type="line"/>
      <point x="1037" y="952" type="line"/>
      <point x="1087" y="1002" type="line"/>
      <point x="145" y="1002" type="line" identifier="LQ9fBsTy9K"/>
      <point x="145" y="1600" type="line" identifier="svlFvrau4c"/>
      <point x="95" y="1550" type="line"/>
    </contour>
  </outline>
</glyph>
<glyph name="Z.wide" format="2">
  <advance width="5037"/>
  <outline>
    <contour>
      <point x="110" y="0" type="line"/>
      <point x="4913" y="0" type="line" identifier="pzdvPTirLJ"/>
      <point x="4913" y="495" type="line"/>
      <point x="1162" y="495" type="line"/>
      <point x="1162" y="528" type="line"/>
      <point x="4889" y="642" type="line" identifier="yyb1NCCI5w"/>
      <point x="4889" y="1600" type="line" identifier="5FogYRSgkk"/>
      <point x="147" y="1600" type="line" identifier="svlFvrau4c"/>
      <point x="147" y="1104" type="line"/>
      <point x="3721" y="1104" type="line"/>
      <point x="3721" y="1075" type="line"/>
      <point x="110" y="973" type="line" identifier="teVKnpBcVb"/>
    </contour>
  </outline>
</glyph>
<glyph name="Z.wide.shadow" format="2">
  <advance width="4867"/>
  <outline>
    <contour>
      <point x="110" y="0" type="line"/>
      <point x="110" y="973" type="line" identifier="teVKnpBcVb"/>
      <point x="3721" y="1075" type="line"/>
      <point x="3721" y="1104" type="line"/>
      <point x="147" y="1104" type="line"/>
      <point x="147" y="1600" type="line" identifier="svlFvrau4c"/>
      <point x="-3" y="1450" type="line"/>
      <point x="-3" y="954" type="line"/>
      <point x="91" y="954" type="line"/>
      <point x="-40" y="823" type="line"/>
      <point x="-40" y="-150" type="line"/>
      <point x="4763" y="-150" type="line"/>
      <point x="4913" y="0" type="line" identifier="pzdvPTirLJ"/>
    </contour>
    <contour>
      <point x="1162" y="495" type="line"/>
      <point x="4742" y="495" type="line"/>
      <point x="4889" y="642" type="line" identifier="yyb1NCCI5w"/>
      <point x="1162" y="528" type="line"/>
    </contour>
    <contour>
      <point x="4914.0" y="-1.0000000000000002" type="line"/>
      <point x="109.0" y="-0.9999999999999998" type="line"/>
      <point x="109.0" y="973.9721518446207" type="line"/>
      <point x="3720.971764239345" y="1075.999601291426" type="line"/>
      <point x="3720.0" y="1075.0" type="line"/>
      <point x="3720.0" y="1104.0" type="line"/>
      <point x="3721.0" y="1103.0" type="line"/>
      <point x="146.0" y="1103.0" type="line"/>
      <point x="146.0" y="1601.0" type="line"/>
      <point x="4890.0" y="1601.0" type="line"/>
      <point x="4890.0" y="641.0301199125803" type="line"/>
      <point x="1162.0305733050996" y="527.0004674727577" type="line"/>
      <point x="1163.0" y="528.0" type="line"/>
      <point x="1163.0" y="495.0" type="line"/>
      <point x="1162.0" y="496.0" type="line"/>
      <point x="4914.0" y="496.0" type="line"/>
    </contour>
    <contour>
      <point x="110.0" y="1.0" type="line"/>
      <point x="4913.0" y="1.0" type="line"/>
      <point x="4912.0" y="1.2246467991473532e-16" type="line"/>
      <point x="4912.0" y="495.0" type="line"/>
      <point x="4913.0" y="494.0" type="line"/>
      <point x="1161.0" y="494.0" type="line"/>
      <point x="1161.0" y="528.9698800874197" type="line"/>
      <point x="4888.969426694901" y="642.9995325272423" type="line"/>
      <point x="4888.0" y="642.0" type="line"/>
      <point x="4888.0" y="1600.0" type="line"/>
      <point x="4889.0" y="1599.0" type="line"/>
      <point x="147.0" y="1599.0" type="line"/>
      <point x="148.0" y="1600.0" type="line"/>
      <point x="148.0" y="1104.0" type="line"/>
      <point x="147.0" y="1105.0" type="line"/>
      <point x="3722.0" y="1105.0" type="line"/>
      <point x="3722.0" y="1074.0278481553792" type="line"/>
      <point x="110.02823576065506" y="972.0003987085742" type="line"/>
      <point x="111.0" y="973.0" type="line"/>
      <point x="111.0" y="-2.4492935982947064e-16" type="line"/>
    </contour>
  </outline>
</glyph>
<glyph name="comma.shadow" format="2">
  <advance width="1748"/>
  <outline>
    <contour>
      <point x="1311" y="-342" type="line"/>
      <point x="1237" y="-342" type="line"/>
      <point x="1237" y="0" type="line"/>
      <point x="818" y="0" type="line"/>
      <point x="818" y="362" type="line"/>
      <point x="967" y="542" type="line"/>
      <point x="817" y="392" type="line"/>
      <point x="668" y="212" type="line"/>
      <point x="668" y="-150" type="line"/>
      <point x="1087" y="-150" type="line"/>
      <point x="1087" y="-492" type="line"/>
      <point x="1161" y="-492" type="line"/>
      <point x="1614" y="-149" type="line"/>
      <point x="1764" y="1" type="line"/>
    </contour>
    <contour>
      <point x="1765.0" y="0.5028566256545168" type="line"/>
      <point x="1311.3358774011035" y="-343.0" type="line"/>
      <point x="1236.0" y="-343.0" type="line"/>
      <point x="1236.0" y="2.4492935982947064e-16" type="line"/>
      <point x="1237.0" y="-1.0" type="line"/>
      <point x="817.0" y="-0.9999999999999998" type="line"/>
      <point x="817.0" y="362.36019173626585" type="line"/>
      <point x="966.5296190627577" y="543.0" type="line"/>
      <point x="1765.0" y="543.0" type="line"/>
    </contour>
    <contour>
      <point x="1310.3963456368979" y="-341.2027538586435" type="line"/>
      <point x="1763.3963456368979" y="1.797246141356458" type="line"/>
      <point x="1763.0" y="1.0000000000000002" type="line"/>
      <point x="1763.0" y="542.0" type="line"/>
      <point x="1764.0" y="541.0" type="line"/>
      <point x="967.0" y="541.0" type="line"/>
      <point x="967.7703218323227" y="541.3623447054662" type="line"/>
      <point x="818.7703218323227" y="361.3623447054662" type="line"/>
      <point x="819.0" y="362.0" type="line"/>
      <point x="819.0" y="-2.4492935982947064e-16" type="line"/>
      <point x="818.0" y="1.0" type="line"/>
      <point x="1238.0" y="0.9999999999999999" type="line"/>
      <point x="1238.0" y="-342.0" type="line"/>
      <point x="1237.0" y="-341.0" type="line"/>
      <point x="1311.0" y="-341.0" type="line"/>
    </contour>
  </outline>
</glyph>
<glyph name="eight.shadow" format="2">
  <advance width="5303"/>
  <outline>
    <contour>
      <point x="4849" y="799" type="line"/>
      <point x="5219" y="593" type="line"/>
      <point x="4867" y="789" type="line"/>
      <point x="5166" y="957" type="line"/>
      <point x="5216" y="1007" type="line"/>
      <point x="4849" y="801" type="line"/>
    </contour>
    <contour>
      <point x="4271" y="1225" type="line"/>
      <point x="4023" y="1104" type="line"/>
      <point x="4271" y="1104" type="line"/>
    </contour>
    <contour>
      <point x="1465" y="1048" type="line"/>
      <point x="1453" y="1054" type="line"/>
      <point x="3920" y="1054" type="line"/>
      <point x="3908" y="1048" type="line"/>
      <point x="4023" y="1104" type="line"/>
      <point x="1350" y="1104" type="line"/>
      <point x="1102" y="1225" type="line"/>
      <point x="1101" y="1104" type="line"/>
      <point x="1350" y="1104" type="line"/>
    </contour>
    <contour>
      <point x="3909" y="552" type="line"/>
      <point x="1465" y="552" type="line"/>
      <point x="1354" y="496" type="line"/>
      <point x="4031" y="496" type="line"/>
      <point x="4274" y="384" type="line"/>
      <point x="4274" y="496" type="line"/>
      <point x="4031" y="496" type="line"/>
    </contour>
    <contour>
      <point x="1415" y="502" type="line"/>
      <point x="3859" y="502" type="line"/>
      <point x="3872" y="496" type="line"/>
      <point x="1403" y="496" type="line"/>
    </contour>
    <contour>
      <point x="1098" y="496" type="line"/>
      <point x="1098" y="367" type="line"/>
      <point x="1354" y="496" type="line"/>
    </contour>
    <contour>
      <point x="106" y="957" type="line"/>
      <point x="456" y="761" type="line"/>
      <point x="153" y="593" type="line"/>
      <point x="103" y="543" type="line"/>
      <point x="103" y="-50" type="line"/>
      <point x="5169" y="-50" type="line"/>
      <point x="5219" y="0" type="line"/>
      <point x="153" y="0" type="line"/>
      <point x="153" y="593" type="line"/>
      <point x="456" y="761" type="line"/>
      <point x="456" y="761" type="line"/>
      <point x="524" y="799" type="line"/>
      <point x="524" y="801" type="line"/>
      <point x="156" y="1007" type="line"/>
      <point x="156" y="1600" type="line"/>
      <point x="106" y="1550" type="line"/>
    </contour>
  </outline>
</glyph>
<glyph name="exclam.shadow" format="2">
  <advance width="1130"/>
  <outline>
    <contour>
      <point x="168" y="2" type="line"/>
      <point x="18" y="-148" type="line"/>
      <point x="18" y="-150" type="line"/>
      <point x="1102" y="-150" type="line"/>
      <point x="1252" y="0" type="line"/>
      <point x="1252" y="2" type="line"/>
    </contour>
    <contour>
      <point x="149" y="643" type="line" identifier="1m237t4hyw"/>
      <point x="149" y="1448" type="line"/>
      <point x="243" y="1600" type="line" identifier="v7N4yg5XNk"/>
      <point x="93" y="1450" type="line"/>
      <point x="-1" y="1298" type="line"/>
      <point x="-1" y="493" type="line"/>
      <point x="912" y="493" type="line"/>
      <point x="1062" y="643" type="line" identifier="S4rO5KuHiL"/>
    </contour>
    <contour>
      <point x="1062.485111324428" y="642.0" type="line"/>
      <point x="148.0" y="642.0" type="line"/>
      <point x="148.0" y="1448.2842303661291" type="line"/>
      <point x="242.4426470104202" y="1601.0" type="line"/>
      <point x="1156.0" y="1601.0" type="line"/>
      <point x="1156.0" y="760.6532996098655" type="line"/>
    </contour>
    <contour>
      <point x="1155.0" y="113.56337318445144" type="line"/>
      <point x="1031.3921499851972" y="-1.0" type="line"/>
      <point x="152.0" y="-0.9999999999999998" type="line"/>
      <point x="152.0" y="427.43662681554866" type="line"/>
      <point x="275.6078500148027" y="542.0" type="line"/>
      <point x="1155.0" y="542.0" type="line"/>
    </contour>
    <contour>
      <point x="149.0" y="644.0" type="line"/>
      <point x="1062.0" y="644.0" type="line"/>
      <point x="1061.2146063845596" y="643.6189966630166" type="line"/>
      <point x="1154.2146063845596" y="761.6189966630166" type="line"/>
      <point x="1154.0" y="761.0" type="line"/>
      <point x="1154.0" y="1600.0" type="line"/>
      <point x="1155.0" y="1599.0" type="line"/>
      <point x="243.0" y="1599.0" type="line"/>
      <point x="243.85050355263778" y="1599.4740306977108" type="line"/>
      <point x="149.85050355263778" y="1447.4740306977108" type="line"/>
      <point x="150.0" y="1448.0" type="line"/>
      <point x="150.0" y="643.0" type="line"/>
    </contour>
    <contour>
      <point x="1030.3202353348402" y="0.733430296619931" type="line"/>
      <point x="1153.3202353348402" y="114.73343029661993" type="line"/>
      <point x="1153.0" y="114.0" type="line"/>
      <point x="1153.0" y="541.0" type="line"/>
      <point x="1154.0" y="540.0" type="line"/>
      <point x="276.0" y="540.0" type="line"/>
      <point x="276.67976466515995" y="540.26656970338" type="line"/>
      <point x="153.67976466515992" y="426.26656970338007" type="line"/>
      <point x="154.0" y="427.0" type="line"/>
      <point x="154.0" y="-2.4492935982947064e-16" type="line"/>
      <point x="153.0" y="1.0" type="line"/>
      <point x="1031.0" y="1.0" type="line"/>
    </contour>
    <component base="period"/>
  </outline>
</glyph>
<glyph name="five.shadow" format="2">
  <advance width="4860"/>
  <outline>
    <contour>
      <point x="125" y="0" type="line" identifier="09VlJ0BjUX"/>
      <point x="125" y="498" type="line" identifier="ho4DrS0rdW"/>
      <point x="1071" y="498" type="line" identifier="jYb9001DTm"/>
      <point x="1071" y="496" type="line" identifier="yZDWuX8LLe"/>
      <point x="3960" y="496" type="line" identifier="9kdl9SYsn8"/>
      <point x="3960" y="585" type="line" identifier="yiV6OCBLHg"/>
      <point x="125" y="585" type="line" identifier="3sQ8t8BZ6b"/>
      <point x="125" y="1600" type="line" identifier="F4sQEYelA8"/>
      <point x="-25" y="1450" type="line"/>
      <point x="-25" y="435" type="line"/>
      <point x="62" y="435" type="line"/>
      <point x="-25" y="348" type="line"/>
      <point x="-25" y="-150" type="line"/>
      <point x="4756" y="-150" type="line"/>
      <point x="4906" y="0" type="line" identifier="EagWihqFM8"/>
    </contour>
    <contour>
      <point x="1070" y="1027" type="line" identifier="At364YZFEy"/>
      <point x="4828" y="1027" type="line"/>
      <point x="4905" y="1104" type="line" identifier="3ZUkG35meB"/>
      <point x="1070" y="1104" type="line" identifier="BcuLfvaQKC"/>
    </contour>
    <contour>
      <point x="4907.0" y="-1.0000000000000002" type="line"/>
      <point x="124.0" y="-0.9999999999999998" type="line"/>
      <point x="124.0" y="499.0" type="line"/>
      <point x="1072.0" y="499.0" type="line"/>
      <point x="1072.0" y="496.0" type="line"/>
      <point x="1071.0" y="497.0" type="line"/>
      <point x="3960.0" y="497.0" type="line"/>
      <point x="3959.0" y="496.0" type="line"/>
      <point x="3959.0" y="585.0" type="line"/>
      <point x="3960.0" y="584.0" type="line"/>
      <point x="124.0" y="584.0" type="line"/>
      <point x="124.0" y="1601.0" type="line"/>
      <point x="4906.0" y="1601.0" type="line"/>
      <point x="4906.0" y="1103.0" type="line"/>
      <point x="1070.0" y="1103.0" type="line"/>
      <point x="1071.0" y="1104.0" type="line"/>
      <point x="1071.0" y="1027.0" type="line"/>
      <point x="1070.0" y="1028.0" type="line"/>
      <point x="4907.0" y="1028.0" type="line"/>
    </contour>
    <contour>
      <point x="125.0" y="1.0" type="line"/>
      <point x="4906.0" y="1.0" type="line"/>
      <point x="4905.0" y="1.2246467991473532e-16" type="line"/>
      <point x="4905.0" y="1027.0" type="line"/>
      <point x="4906.0" y="1026.0" type="line"/>
      <point x="1069.0" y="1026.0" type="line"/>
      <point x="1069.0" y="1105.0" type="line"/>
      <point x="4905.0" y="1105.0" type="line"/>
      <point x="4904.0" y="1104.0" type="line"/>
      <point x="4904.0" y="1600.0" type="line"/>
      <point x="4905.0" y="1599.0" type="line"/>
      <point x="125.0" y="1599.0" type="line"/>
      <point x="126.0" y="1600.0" type="line"/>
      <point x="126.0" y="585.0" type="line"/>
      <point x="125.0" y="586.0" type="line"/>
      <point x="3961.0" y="586.0" type="line"/>
      <point x="3961.0" y="495.0" type="line"/>
      <point x="1070.0" y="495.0" type="line"/>
      <point x="1070.0" y="498.0" type="line"/>
      <point x="1071.0" y="497.0" type="line"/>
      <point x="125.0" y="497.0" type="line"/>
      <point x="126.0" y="498.0" type="line"/>
      <point x="126.0" y="-2.4492935982947064e-16" type="line"/>
    </contour>
  </outline>
</glyph>
<glyph name="five.wide.shadow" format="2">
  <advance width="5125"/>
  <outline>
    <contour>
      <point x="126" y="0" type="line" identifier="09VlJ0BjUX"/>
      <point x="126" y="536" type="line" identifier="yZDWuX8LLe"/>
      <point x="4046" y="536" type="line" identifier="9kdl9SYsn8"/>
      <point x="4046" y="628" type="line" identifier="yiV6OCBLHg"/>
      <point x="124" y="628" type="line" identifier="3sQ8t8BZ6b"/>
      <point x="124" y="1600" type="line" identifier="F4sQEYelA8"/>
      <point x="-26" y="1450" type="line"/>
      <point x="-26" y="478" type="line"/>
      <point x="68" y="478" type="line"/>
      <point x="-24" y="386" type="line"/>
      <point x="-24" y="-150" type="line"/>
      <point x="4841" y="-150" type="line"/>
      <point x="4991" y="0" type="line" identifier="EagWihqFM8"/>
    </contour>
    <contour>
      <point x="1069" y="970" type="line" identifier="At364YZFEy"/>
      <point x="4897" y="970" type="line"/>
      <point x="4991" y="1064" type="line" identifier="3ZUkG35meB"/>
      <point x="1069" y="1064" type="line" identifier="BcuLfvaQKC"/>
    </contour>
    <contour>
      <point x="4992.0" y="-1.0000000000000002" type="line"/>
      <point x="125.0" y="-0.9999999999999998" type="line"/>
      <point x="125.0" y="537.0" type="line"/>
      <point x="4046.0" y="537.0" type="line"/>
      <point x="4045.0" y="536.0" type="line"/>
      <point x="4045.0" y="628.0" type="line"/>
      <point x="4046.0" y="627.0" type="line"/>
      <point x="123.0" y="627.0" type="line"/>
      <point x="123.0" y="1601.0" type="line"/>
      <point x="4992.0" y="1601.0" type="line"/>
      <point x="4992.0" y="1063.0" type="line"/>
      <point x="1069.0" y="1063.0" type="line"/>
      <point x="1070.0" y="1064.0" type="line"/>
      <point x="1070.0" y="970.0" type="line"/>
      <point x="1069.0" y="971.0" type="line"/>
      <point x="4992.0" y="971.0" type="line"/>
    </contour>
    <contour>
      <point x="126.0" y="1.0" type="line"/>
      <point x="4991.0" y="1.0" type="line"/>
      <point x="4990.0" y="1.2246467991473532e-16" type="line"/>
      <point x="4990.0" y="970.0" type="line"/>
      <point x="4991.0" y="969.0" type="line"/>
      <point x="1068.0" y="969.0" type="line"/>
      <point x="1068.0" y="1065.0" type="line"/>
      <point x="4991.0" y="1065.0" type="line"/>
      <point x="4990.0" y="1064.0" type="line"/>
      <point x="4990.0" y="1600.0" type="line"/>
      <point x="4991.0" y="1599.0" type="line"/>
      <point x="124.0" y="1599.0" type="line"/>
      <point x="125.0" y="1600.0" type="line"/>
      <point x="125.0" y="628.0" type="line"/>
      <point x="124.0" y="629.0" type="line"/>
      <point x="4047.0" y="629.0" type="line"/>
      <point x="4047.0" y="535.0" type="line"/>
      <point x="126.0" y="535.0" type="line"/>
      <point x="127.0" y="536.0" type="line"/>
      <point x="127.0" y="-2.4492935982947064e-16" type="line"/>
    </contour>
  </outline>
</glyph>
<glyph name="four.shadow" format="2">
  <advance width="5087"/>
  <outline>
    <contour>
      <point x="5033" y="478" type="line"/>
      <point x="4620" y="478" type="line"/>
      <point x="4620" y="428" type="line"/>
      <point x="4983" y="428" type="line"/>
    </contour>
    <contour>
      <point x="3675" y="0" type="line"/>
      <point x="3675" y="478" type="line"/>
      <point x="124" y="478" type="line"/>
      <point x="124" y="1075" type="line"/>
      <point x="547" y="1608" type="line"/>
      <point x="497" y="1558" type="line"/>
      <point x="74" y="1025" type="line"/>
      <point x="74" y="428" type="line"/>
      <point x="3625" y="428" type="line"/>
      <point x="3625" y="-50" type="line"/>
      <point x="4570" y="-50" type="line"/>
      <point x="4620" y="0" type="line"/>
    </contour>
    <contour>
      <point x="3625" y="1014" type="line"/>
      <point x="3675" y="1014" type="line"/>
      <point x="3675" y="1600" type="line"/>
      <point x="3625" y="1550" type="line"/>
    </contour>
  </outline>
</glyph>
<glyph name="one.narrow.shadow" format="2">
  <advance width="3040"/>
  <outline>
    <contour>
      <point x="2918" y="0" type="line" identifier="5nmxQXofSG"/>
      <point x="1973" y="0" type="line"/>
      <point x="1973" y="1064" type="line"/>
      <point x="124" y="1064" type="line"/>
      <point x="124" y="1600" type="line"/>
      <point x="74" y="1550" type="line"/>
      <point x="74" y="1014" type="line"/>
      <point x="1923" y="1014" type="line"/>
      <point x="1923" y="-50" type="line"/>
      <point x="2868" y="-50" type="line"/>
    </contour>
  </outline>
</glyph>
<glyph name="one.shadow" format="2">
  <advance width="4915"/>
  <outline>
    <contour>
      <point x="124" y="0" type="line"/>
      <point x="124" y="536" type="line"/>
      <point x="-26" y="386" type="line"/>
      <point x="-26" y="-150" type="line"/>
      <point x="4811" y="-150" type="line"/>
      <point x="4961" y="0" type="line" identifier="CURJAw79Zl"/>
    </contour>
    <contour>
      <point x="79" y="914" type="line"/>
      <point x="1920" y="914" type="line"/>
      <point x="1920" y="536" type="line"/>
      <point x="2070" y="536" type="line"/>
      <point x="2070" y="1064" type="line"/>
      <point x="229" y="1064" type="line"/>
      <point x="229" y="1600" type="line"/>
      <point x="79" y="1450" type="line"/>
    </contour>
    <contour>
      <point x="4962.0" y="-1.0000000000000002" type="line"/>
      <point x="123.0" y="-0.9999999999999998" type="line"/>
      <point x="123.0" y="537.0" type="line"/>
      <point x="2070.0" y="537.0" type="line"/>
      <point x="2069.0" y="536.0" type="line"/>
      <point x="2069.0" y="1064.0" type="line"/>
      <point x="2070.0" y="1063.0" type="line"/>
      <point x="228.0" y="1063.0" type="line"/>
      <point x="228.0" y="1601.0" type="line"/>
      <point x="3016.0" y="1601.0" type="line"/>
      <point x="3016.0" y="536.0" type="line"/>
      <point x="3015.0" y="537.0" type="line"/>
      <point x="4962.0" y="537.0" type="line"/>
    </contour>
    <contour>
      <point x="124.0" y="1.0" type="line"/>
      <point x="4961.0" y="1.0" type="line"/>
      <point x="4960.0" y="1.2246467991473532e-16" type="line"/>
      <point x="4960.0" y="536.0" type="line"/>
      <point x="4961.0" y="535.0" type="line"/>
      <point x="3014.0" y="535.0" type="line"/>
      <point x="3014.0" y="1600.0" type="line"/>
      <point x="3015.0" y="1599.0" type="line"/>
      <point x="229.0" y="1599.0" type="line"/>
      <point x="230.0" y="1600.0" type="line"/>
      <point x="230.0" y="1064.0" type="line"/>
      <point x="229.0" y="1065.0" type="line"/>
      <point x="2071.0" y="1065.0" type="line"/>
      <point x="2071.0" y="535.0" type="line"/>
      <point x="124.0" y="535.0" type="line"/>
      <point x="125.0" y="536.0" type="line"/>
      <point x="125.0" y="-2.4492935982947064e-16" type="line"/>
    </contour>
  </outline>
</glyph>
<glyph name="period.shadow" format="2">
  <advance width="1138"/>
  <outline>
    <contour>
      <point x="1031" y="0" type="line" identifier="1m237t4hyw"/>
      <point x="153" y="0" type="line" identifier="S4rO5KuHiL"/>
      <point x="153" y="427" type="line"/>
      <point x="3" y="277" type="line"/>
      <point x="3" y="-150" type="line"/>
      <point x="881" y="-150" type="line"/>
      <point x="1004" y="-36" type="line"/>
      <point x="1154" y="114" type="line" identifier="v7N4yg5XNk"/>
    </contour>
    <contour>
      <point x="1155.0" y="113.56337318445144" type="line"/>
      <point x="1031.3921499851972" y="-1.0" type="line"/>
      <point x="152.0" y="-0.9999999999999998" type="line"/>
      <point x="152.0" y="427.43662681554866" type="line"/>
      <point x="275.6078500148027" y="542.0" type="line"/>
      <point x="1155.0" y="542.0" type="line"/>
    </contour>
    <contour>
      <point x="1030.3202353348402" y="0.733430296619931" type="line"/>
      <point x="1153.3202353348402" y="114.73343029661993" type="line"/>
      <point x="1153.0" y="114.0" type="line"/>
      <point x="1153.0" y="541.0" type="line"/>
      <point x="1154.0" y="540.0" type="line"/>
      <point x="276.0" y="540.0" type="line"/>
      <point x="276.67976466515995" y="540.26656970338" type="line"/>
      <point x="153.67976466515992" y="426.26656970338007" type="line"/>
      <point x="154.0" y="427.0" type="line"/>
      <point x="154.0" y="-2.4492935982947064e-16" type="line"/>
      <point x="153.0" y="1.0" type="line"/>
      <point x="1031.0" y="1.0" type="line"/>
    </contour>
  </outline>
</glyph>
<glyph name="seven.shadow" format="2">
  <advance width="4990"/>
  <outline>
    <contour>
      <point x="1835" y="0" type="line"/>
      <point x="3724" y="996" type="line"/>
      <point x="3724" y="1064" type="line"/>
      <point x="1069" y="1064" type="line"/>
      <point x="1069" y="1014" type="line"/>
      <point x="3674" y="1014" type="line"/>
      <point x="3674" y="970" type="line"/>
      <point x="1835" y="0" type="line"/>
      <point x="1785" y="-50" type="line"/>
      <point x="2821" y="-50" type="line"/>
      <point x="4886" y="942" type="line"/>
      <point x="4936" y="992" type="line" identifier="PkvwNC9Tx1"/>
      <point x="2871" y="0" type="line" identifier="PiPrv7Kcoy"/>
    </contour>
    <contour>
      <point x="74" y="651" type="line"/>
      <point x="1019" y="651" type="line"/>
      <point x="1069" y="701" type="line"/>
      <point x="124" y="701" type="line" identifier="aaDZsh5Mah"/>
      <point x="124" y="1600" type="line" identifier="36ml4xRICt"/>
      <point x="74" y="1550" type="line"/>
    </contour>
  </outline>
</glyph>
<glyph name="six.shadow" format="2">
  <advance width="4983"/>
  <outline>
    <contour>
      <point x="1098" y="1046" type="line"/>
      <point x="1098" y="971" type="line"/>
      <point x="1206" y="1046" type="line"/>
    </contour>
    <contour>
      <point x="4083" y="550" type="line"/>
      <point x="1098" y="550" type="line"/>
      <point x="1098" y="496" type="line"/>
      <point x="4083" y="496" type="line"/>
    </contour>
    <contour>
      <point x="153" y="0" type="line" identifier="uiw6aBUf4P"/>
      <point x="153" y="1191" type="line" identifier="KnMArb0tv8"/>
      <point x="3" y="1041" type="line"/>
      <point x="3" y="-150" type="line"/>
      <point x="4879" y="-150" type="line"/>
      <point x="5029" y="0" type="line" identifier="jtYkxiUX6G"/>
    </contour>
    <contour>
      <point x="4083" y="1198" type="line"/>
      <point x="4878" y="1198" type="line"/>
      <point x="5028" y="1348" type="line" identifier="Wuidbv6mUe"/>
      <point x="4083" y="1348" type="line"/>
    </contour>
    <contour>
      <point x="4083" y="1104" type="line"/>
      <point x="1290" y="1104" type="line"/>
      <point x="1206" y="1046" type="line"/>
      <point x="4025" y="1046" type="line"/>
    </contour>
    <contour>
      <point x="5030.0" y="-1.0000000000000002" type="line"/>
      <point x="152.0" y="-0.9999999999999998" type="line"/>
      <point x="152.0" y="1191.463573491055" type="line"/>
      <point x="635.6334816719326" y="1601.0" type="line"/>
      <point x="5029.0" y="1601.0" type="line"/>
      <point x="5029.0" y="1347.0" type="line"/>
      <point x="4083.0" y="1347.0" type="line"/>
      <point x="4084.0" y="1348.0" type="line"/>
      <point x="4084.0" y="1103.0" type="line"/>
      <point x="1290.0" y="1103.0" type="line"/>
      <point x="1290.5694325932618" y="1103.1779619706297" type="line"/>
      <point x="1097.0" y="969.0908029346722" type="line"/>
      <point x="1097.0" y="1047.0" type="line"/>
      <point x="5030.0" y="1047.0" type="line"/>
    </contour>
    <contour>
      <point x="4082.0" y="550.0" type="line"/>
      <point x="4083.0" y="549.0" type="line"/>
      <point x="1098.0" y="549.0" type="line"/>
      <point x="1099.0" y="550.0" type="line"/>
      <point x="1099.0" y="496.0" type="line"/>
      <point x="1098.0" y="497.0" type="line"/>
      <point x="4083.0" y="497.0" type="line"/>
      <point x="4082.0" y="496.0" type="line"/>
    </contour>
    <contour>
      <point x="153.0" y="1.0" type="line"/>
      <point x="5029.0" y="1.0" type="line"/>
      <point x="5028.0" y="1.2246467991473532e-16" type="line"/>
      <point x="5028.0" y="1046.0" type="line"/>
      <point x="5029.0" y="1045.0" type="line"/>
      <point x="1098.0" y="1045.0" type="line"/>
      <point x="1099.0" y="1046.0" type="line"/>
      <point x="1099.0" y="971.0" type="line"/>
      <point x="1097.4305674067382" y="971.8220380293704" type="line"/>
      <point x="1289.6874749132112" y="1105.0" type="line"/>
      <point x="4083.0" y="1105.0" type="line"/>
      <point x="4082.0" y="1104.0" type="line"/>
      <point x="4082.0" y="1349.0" type="line"/>
      <point x="5028.0" y="1349.0" type="line"/>
      <point x="5027.0" y="1348.0" type="line"/>
      <point x="5027.0" y="1600.0" type="line"/>
      <point x="5028.0" y="1599.0" type="line"/>
      <point x="636.0" y="1599.0" type="line"/>
      <point x="636.6462255097422" y="1599.236853493385" type="line"/>
      <point x="153.64622550974218" y="1190.236853493385" type="line"/>
      <point x="154.0" y="1191.0" type="line"/>
      <point x="154.0" y="-2.4492935982947064e-16" type="line"/>
    </contour>
    <contour>
      <point x="4084.0" y="495.0" type="line"/>
      <point x="1097.0" y="495.0" type="line"/>
      <point x="1097.0" y="551.0" type="line"/>
      <point x="4084.0" y="551.0" type="line"/>
    </contour>
  </outline>
</glyph>
<glyph name="six.wide" format="2">
  <advance width="5515"/>
  <outline>
    <contour>
      <point x="230" y="0" type="line" identifier="uiw6aBUf4P"/>
      <point x="5106" y="0" type="line" identifier="jtYkxiUX6G"/>
      <point x="5106" y="1043" type="line" identifier="2G5L37c87I"/>
      <point x="1175" y="1043" type="line"/>
      <point x="1175" y="975" type="line"/>
      <point x="1366" y="1104" type="line"/>
      <point x="5105" y="1104" type="line"/>
      <point x="5105" y="1600" type="line" identifier="oGvEEuxnYv"/>
      <point x="710" y="1600" type="line" identifier="xR3pEHbMJx"/>
      <point x="230" y="1195" type="line" identifier="KnMArb0tv8"/>
    </contour>
    <contour>
      <point x="4160" y="551" type="line"/>
      <point x="4160" y="496" type="line"/>
      <point x="1175" y="496" type="line"/>
      <point x="1175" y="551" type="line"/>
    </contour>
  </outline>
</glyph>
<glyph name="six.wide.shadow" format="2">
  <advance width="5446"/>
  <outline>
    <contour>
      <point x="1175" y="1043" type="line"/>
      <point x="1175" y="975" type="line"/>
      <point x="1276" y="1043" type="line"/>
    </contour>
    <contour>
      <point x="4160" y="551" type="line"/>
      <point x="1175" y="551" type="line"/>
      <point x="1175" y="501" type="line"/>
      <point x="4110" y="501" type="line"/>
      <point x="4110" y="496" type="line"/>
      <point x="4160" y="496" type="line"/>
    </contour>
    <contour>
      <point x="230" y="0" type="line" identifier="uiw6aBUf4P"/>
      <point x="230" y="1195" type="line" identifier="KnMArb0tv8"/>
      <point x="180" y="1145" type="line"/>
      <point x="180" y="-50" type="line"/>
      <point x="5056" y="-50" type="line"/>
      <point x="5106" y="0" type="line" identifier="jtYkxiUX6G"/>
    </contour>
    <contour>
      <point x="1316" y="1054" type="line"/>
      <point x="5055" y="1054" type="line"/>
      <point x="5105" y="1104" type="line"/>
      <point x="1366" y="1104" type="line"/>
      <point x="1276" y="1043" type="line"/>
      <point x="1300" y="1043" type="line"/>
    </contour>
  </outline>
</glyph>
<glyph name="three.shadow" format="2">
  <advance width="5182"/>
  <outline>
    <contour>
      <point x="5098" y="895" type="line" identifier="su2XmdS8e8"/>
      <point x="4720" y="898" type="line"/>
      <point x="4931" y="1028" type="line"/>
      <point x="4981" y="1078" type="line" identifier="S91TzLL02W"/>
      <point x="4689" y="898" type="line"/>
    </contour>
    <contour>
      <point x="4591" y="899" type="line" identifier="JQaOzDQqlF"/>
      <point x="4502" y="783" type="line"/>
      <point x="4689" y="898" type="line"/>
    </contour>
    <contour>
      <point x="98" y="839" type="line"/>
      <point x="1045" y="839" type="line"/>
      <point x="1095" y="889" type="line" identifier="AcE5xKDZfE"/>
      <point x="148" y="889" type="line" identifier="5lNstGRcSF"/>
      <point x="148" y="1600" type="line" identifier="pE1XSRiy68"/>
      <point x="98" y="1550" type="line"/>
    </contour>
    <contour>
      <point x="3713" y="1047" type="line"/>
      <point x="3723" y="1054" type="line"/>
      <point x="3723" y="1054" type="line"/>
      <point x="3794" y="1104" type="line"/>
      <point x="3821" y="1104" type="line" identifier="RHLvSX2Jv6"/>
      <point x="3821" y="1123" type="line" identifier="YUjTrmoWd9"/>
      <point x="3794" y="1104" type="line"/>
      <point x="1095" y="1104" type="line" identifier="7ogBYufWpl"/>
      <point x="1095" y="1054" type="line"/>
      <point x="3723" y="1054" type="line"/>
    </contour>
    <contour>
      <point x="1564" y="501" type="line"/>
      <point x="4102" y="501" type="line"/>
      <point x="4102" y="496" type="line"/>
      <point x="4152" y="496" type="line" identifier="xv9CFHiFgB"/>
      <point x="4152" y="551" type="line" identifier="Dm8zjmbhNr"/>
      <point x="1614" y="551" type="line" identifier="8aKgEELrVU"/>
      <point x="1614" y="1047" type="line" identifier="lRLJEhXMlO"/>
      <point x="1564" y="997" type="line"/>
    </contour>
    <contour>
      <point x="124" y="0" type="line" identifier="O9abUc1nmN"/>
      <point x="124" y="708" type="line" identifier="tVui9PiOjA"/>
      <point x="74" y="658" type="line"/>
      <point x="74" y="-50" type="line"/>
      <point x="5048" y="-50" type="line"/>
      <point x="5098" y="0" type="line" identifier="kMJYMTfXCq"/>
    </contour>
  </outline>
</glyph>
<glyph name="three.wide.shadow" format="2">
  <advance width="5010"/>
  <outline>
    <contour>
      <point x="4976" y="992" type="line" identifier="S91TzLL02W"/>
      <point x="4750" y="895" type="line"/>
      <point x="4879" y="895" type="line"/>
    </contour>
    <contour>
      <point x="4479" y="895" type="line" identifier="JQaOzDQqlF"/>
      <point x="4479" y="779" type="line"/>
      <point x="4750" y="895" type="line"/>
    </contour>
    <contour>
      <point x="124" y="0" type="line" identifier="O9abUc1nmN"/>
      <point x="124" y="536" type="line" identifier="YajKQV3MHP"/>
      <point x="-26" y="386" type="line"/>
      <point x="-26" y="-150" type="line"/>
      <point x="4836" y="-150" type="line"/>
      <point x="4986" y="0" type="line" identifier="kMJYMTfXCq"/>
    </contour>
    <contour>
      <point x="-2" y="914" type="line"/>
      <point x="846" y="914" type="line"/>
      <point x="746" y="814" type="line"/>
      <point x="746" y="536" type="line"/>
      <point x="4040" y="536" type="line" identifier="xv9CFHiFgB"/>
      <point x="4040" y="633" type="line" identifier="Dm8zjmbhNr"/>
      <point x="896" y="633" type="line" identifier="8aKgEELrVU"/>
      <point x="896" y="964" type="line" identifier="lRLJEhXMlO"/>
      <point x="3691" y="964" type="line" identifier="iic1IBkDqp"/>
      <point x="3816" y="971" type="line" identifier="YUjTrmoWd9"/>
      <point x="3816" y="1064" type="line" identifier="RHLvSX2Jv6"/>
      <point x="148" y="1064" type="line" identifier="7ogBYufWpl"/>
      <point x="148" y="1600" type="line" identifier="pE1XSRiy68"/>
      <point x="-2" y="1450" type="line"/>
    </contour>
    <contour>
      <point x="4987.0" y="-1.0000000000000002" type="line"/>
      <point x="123.0" y="-0.9999999999999998" type="line"/>
      <point x="123.0" y="537.0" type="line"/>
      <point x="4040.0" y="537.0" type="line"/>
      <point x="4039.0" y="536.0" type="line"/>
      <point x="4039.0" y="633.0" type="line"/>
      <point x="4040.0" y="632.0" type="line"/>
      <point x="895.0" y="632.0" type="line"/>
      <point x="895.0" y="965.0" type="line"/>
      <point x="896.0" y="965.0" type="line"/>
      <point x="3690.944087602014" y="964.9984356783245" type="line"/>
      <point x="3815.944087602014" y="971.9984356783245" type="line"/>
      <point x="3815.0" y="971.0" type="line"/>
      <point x="3815.0" y="1064.0" type="line"/>
      <point x="3816.0" y="1063.0" type="line"/>
      <point x="147.0" y="1063.0" type="line"/>
      <point x="147.0" y="1601.0" type="line"/>
      <point x="4977.0" y="1601.0" type="line"/>
      <point x="4977.0" y="991.3406038420195" type="line"/>
      <point x="4478.0" y="777.4834609848766" type="line"/>
      <point x="4478.0" y="896.0" type="line"/>
      <point x="4987.0" y="896.0" type="line"/>
    </contour>
    <contour>
      <point x="124.0" y="1.0" type="line"/>
      <point x="4986.0" y="1.0" type="line"/>
      <point x="4985.0" y="1.2246467991473532e-16" type="line"/>
      <point x="4985.0" y="895.0" type="line"/>
      <point x="4986.0" y="894.0" type="line"/>
      <point x="4479.0" y="894.0" type="line"/>
      <point x="4480.0" y="895.0" type="line"/>
      <point x="4480.0" y="779.0" type="line"/>
      <point x="4478.606080701421" y="779.9191450300181" type="line"/>
      <point x="4975.606080701421" y="992.9191450300181" type="line"/>
      <point x="4975.0" y="992.0" type="line"/>
      <point x="4975.0" y="1600.0" type="line"/>
      <point x="4976.0" y="1599.0" type="line"/>
      <point x="148.0" y="1599.0" type="line"/>
      <point x="149.0" y="1600.0" type="line"/>
      <point x="149.0" y="1064.0" type="line"/>
      <point x="148.0" y="1065.0" type="line"/>
      <point x="3817.0" y="1065.0" type="line"/>
      <point x="3817.0" y="970.0544332273882" type="line"/>
      <point x="3691.055912397986" y="963.0015643216755" type="line"/>
      <point x="896.0" y="963.0" type="line"/>
      <point x="897.0" y="964.0" type="line"/>
      <point x="897.0" y="633.0" type="line"/>
      <point x="896.0" y="634.0" type="line"/>
      <point x="4041.0" y="634.0" type="line"/>
      <point x="4041.0" y="535.0" type="line"/>
      <point x="124.0" y="535.0" type="line"/>
      <point x="125.0" y="536.0" type="line"/>
      <point x="125.0" y="-2.4492935982947064e-16" type="line"/>
    </contour>
  </outline>
</glyph>
<glyph name="two.shadow" format="2">
  <advance width="4873"/>
  <outline>
    <contour>
      <point x="4701" y="615" type="line"/>
      <point x="4851" y="765" type="line" identifier="yyb1NCCI5w"/>
      <point x="1261" y="496" type="line"/>
      <point x="3113" y="496" type="line"/>
    </contour>
    <contour>
      <point x="1088" y="954" type="line"/>
      <point x="2206" y="954" type="line"/>
      <point x="1007" y="873" type="line"/>
    </contour>
    <contour>
      <point x="1248" y="496" type="line"/>
      <point x="1248" y="495" type="line"/>
      <point x="1261" y="496" type="line"/>
    </contour>
    <contour>
      <point x="124" y="0" type="line"/>
      <point x="124" y="813" type="line" identifier="teVKnpBcVb"/>
      <point x="3683" y="1054" type="line"/>
      <point x="3683" y="1104" type="line"/>
      <point x="1089" y="1104" type="line"/>
      <point x="1089" y="955" type="line"/>
      <point x="145" y="955" type="line" identifier="LQ9fBsTy9K"/>
      <point x="145" y="1600" type="line" identifier="svlFvrau4c"/>
      <point x="-5" y="1450" type="line"/>
      <point x="-5" y="805" type="line"/>
      <point x="116" y="805" type="line"/>
      <point x="-26" y="663" type="line"/>
      <point x="-26" y="-150" type="line"/>
      <point x="4769" y="-150" type="line"/>
      <point x="4919" y="0" type="line" identifier="pzdvPTirLJ"/>
    </contour>
    <contour>
      <point x="4920.0" y="-1.0000000000000002" type="line"/>
      <point x="123.0" y="-0.9999999999999998" type="line"/>
      <point x="123.0" y="813.9345744319565" type="line"/>
      <point x="3682.932439069635" y="1054.9977151500746" type="line"/>
      <point x="3682.0" y="1054.0" type="line"/>
      <point x="3682.0" y="1104.0" type="line"/>
      <point x="3683.0" y="1103.0" type="line"/>
      <point x="1089.0" y="1103.0" type="line"/>
      <point x="1090.0" y="1104.0" type="line"/>
      <point x="1090.0" y="954.0" type="line"/>
      <point x="144.0" y="954.0" type="line"/>
      <point x="144.0" y="1601.0" type="line"/>
      <point x="4852.0" y="1601.0" type="line"/>
      <point x="4852.0" y="764.0721336645796" type="line"/>
      <point x="1247.0" y="493.9222585604996" type="line"/>
      <point x="1247.0" y="497.0" type="line"/>
      <point x="4920.0" y="497.0" type="line"/>
    </contour>
    <contour>
      <point x="124.0" y="1.0" type="line"/>
      <point x="4919.0" y="1.0" type="line"/>
      <point x="4918.0" y="1.2246467991473532e-16" type="line"/>
      <point x="4918.0" y="496.0" type="line"/>
      <point x="4919.0" y="495.0" type="line"/>
      <point x="1248.0" y="495.0" type="line"/>
      <point x="1249.0" y="496.0" type="line"/>
      <point x="1249.0" y="495.0" type="line"/>
      <point x="1247.925271976927" y="495.99720395234255" type="line"/>
      <point x="4850.9252719769265" y="765.9972039523425" type="line"/>
      <point x="4850.0" y="765.0" type="line"/>
      <point x="4850.0" y="1600.0" type="line"/>
      <point x="4851.0" y="1599.0" type="line"/>
      <point x="145.0" y="1599.0" type="line"/>
      <point x="146.0" y="1600.0" type="line"/>
      <point x="146.0" y="955.0" type="line"/>
      <point x="145.0" y="956.0" type="line"/>
      <point x="1089.0" y="956.0" type="line"/>
      <point x="1088.0" y="955.0" type="line"/>
      <point x="1088.0" y="1105.0" type="line"/>
      <point x="3684.0" y="1105.0" type="line"/>
      <point x="3684.0" y="1053.0654255680436" type="line"/>
      <point x="124.06756093036469" y="812.0022848499254" type="line"/>
      <point x="125.0" y="813.0" type="line"/>
      <point x="125.0" y="-2.4492935982947064e-16" type="line"/>
    </contour>
  </outline>
</glyph>
<glyph name="zero.shadow" format="2">
  <advance width="5092"/>
  <outline>
    <contour>
      <point x="192" y="0" type="line" identifier="4KX3b3mGg4"/>
      <point x="192" y="1600" type="line" identifier="rx6fJSLiri"/>
      <point x="42" y="1450" type="line"/>
      <point x="42" y="-150" type="line"/>
      <point x="4920" y="-150" type="line"/>
      <point x="5070" y="0" type="line" identifier="V2j8wYP0nr"/>
    </contour>
    <contour>
      <point x="3976" y="599" type="line"/>
      <point x="4126" y="599" type="line"/>
      <point x="4126" y="1001" type="line"/>
      <point x="1137" y="1001" type="line"/>
      <point x="1137" y="851" type="line"/>
      <point x="3976" y="851" type="line"/>
    </contour>
    <contour>
      <point x="5071.0" y="-1.0000000000000002" type="line"/>
      <point x="191.0" y="-0.9999999999999998" type="line"/>
      <point x="191.0" y="1601.0" type="line"/>
      <point x="5071.0" y="1601.0" type="line"/>
    </contour>
    <contour>
      <point x="1138.0" y="599.0" type="line"/>
      <point x="1137.0" y="600.0" type="line"/>
      <point x="4126.0" y="600.0" type="line"/>
      <point x="4125.0" y="599.0" type="line"/>
      <point x="4125.0" y="1001.0" type="line"/>
      <point x="4126.0" y="1000.0" type="line"/>
      <point x="1137.0" y="1000.0" type="line"/>
      <point x="1138.0" y="1001.0" type="line"/>
    </contour>
    <contour>
      <point x="192.0" y="1.0" type="line"/>
      <point x="5070.0" y="1.0" type="line"/>
      <point x="5069.0" y="1.2246467991473532e-16" type="line"/>
      <point x="5069.0" y="1600.0" type="line"/>
      <point x="5070.0" y="1599.0" type="line"/>
      <point x="192.0" y="1599.0" type="line"/>
      <point x="193.0" y="1600.0" type="line"/>
      <point x="193.0" y="-2.4492935982947064e-16" type="line"/>
    </contour>
    <contour>
      <point x="1136.0" y="1002.0" type="line"/>
      <point x="4127.0" y="1002.0" type="line"/>
      <point x="4127.0" y="598.0" type="line"/>
      <point x="1136.0" y="598.0" type="line"/>
    </contour>
  </outline>
</glyph>
